<?xml version="1.0" encoding="utf-8"?>
<!-- Generator: Adobe Illustrator 23.1.0, SVG Export Plug-In . SVG Version: 6.00 Build 0)  -->
<svg version="1.1" xmlns="http://www.w3.org/2000/svg" xmlns:xlink="http://www.w3.org/1999/xlink" x="0px" y="0px"
	 viewBox="0 0 227.3 281.9" style="enable-background:new 0 0 227.3 281.9;" xml:space="preserve">
<style type="text/css">
	.st0{fill:#FFFFFF;}
	.st1{display:none;}
	.st2{display:inline;opacity:0.32;fill:#E18C44;}
</style>
<g id="Слой_1">
	<g>
		<path d="M111,272.9c-6-2-27.8-10.5-54.6-35.1c-25.2-23.1-31.9-43.3-33.6-50.9c-0.4-1.8-1-4.7-1.3-42.3c-0.1-21.1-0.1-67.5,0-83.6
			c0-4.3,0-8,0.1-10.7l0-4l2.7-2.9C25.7,42.1,56.1,10,113.6,10c58.7,0,88.1,29,91.4,34l0.1,0l2.1,3.4l0.1,3c0,2.8,0,6.4,0.1,10.7
			c0.1,12.1,0.5,118-1.3,125.9c-1.7,7.6-8.3,27.8-33.6,50.9c-26.8,24.6-48.6,33.1-54.6,35.1l-3.4,1.1L111,272.9z"/>
		<path d="M197.3,61c0-4.3,0-7.9-0.1-10.6c0,0,0-0.1,0-0.1l-0.6-1c-0.1-0.3-23.4-28.3-83-28.3c-53.9,0-82,29.3-82,29.3
			c0,2.7,0,6.4-0.1,10.7c-0.1,15.7-0.1,62.4,0,83.5c0.1,20.4,0.4,37.5,1,40.2c1.2,5.2,6.8,23.9,30.6,45.7c25.4,23.3,45.5,31.2,51,33
			l0.2,0.1l0.2-0.1c5.6-1.9,25.7-9.8,51-33c23.8-21.8,29.4-40.5,30.6-45.7C197.5,179.1,197.4,91.9,197.3,61z"/>
		<g>
			<g>
				<path class="st0" d="M114.9,263.5l-0.2-0.1c-5.6-1.9-25.7-9.8-51-33c-23.8-21.8-29.4-40.5-30.6-45.7c-1.4-6.4-1.1-90.3-1-112.4
					l1.5,0c-0.2,32.7-0.3,106.4,0.9,112.1c1.1,5.1,6.7,23.4,30.1,44.9c24.8,22.8,44.5,30.6,50.3,32.6c5.8-2,25.4-9.9,50.3-32.6
					c23.4-21.5,29-39.8,30.1-44.9c1.3-5.7,1.2-79.3,0.9-112.1l1.5,0c0.2,22.1,0.5,106-1,112.4c-1.2,5.2-6.8,23.9-30.6,45.7
					c-25.4,23.3-45.5,31.2-51,33L114.9,263.5z"/>
			</g>
			<g>
				<path class="st0" d="M39.6,63.1l-7-13.6l3-2.3l11.4,10.2l-2.4,1.9L42.3,57l-1.7,1.4l1.5,2.8L39.6,63.1z M39.6,56.6l1.3-1
					l-4.2-4.2L39.6,56.6z"/>
				<path class="st0" d="M51.9,54.2l-7.4-13.1l4.4-2.5c0.8-0.4,1.5-0.7,2.2-0.6c0.7,0,1.3,0.2,1.9,0.7c0.6,0.4,1.1,1,1.5,1.9
					c0.6,1,0.8,1.9,0.8,2.6c0,0.7-0.3,1.3-0.7,1.9c-0.5,0.5-1,1-1.8,1.4L51.7,47l3.1,5.6L51.9,54.2z M50.5,45l1-0.5
					c0.4-0.2,0.6-0.4,0.7-0.6c0.1-0.2,0.1-0.5,0-0.8c-0.1-0.3-0.2-0.6-0.5-1c-0.2-0.3-0.4-0.6-0.6-0.8c-0.2-0.2-0.4-0.4-0.7-0.4
					c-0.3,0-0.6,0-1,0.3l-1,0.5L50.5,45z"/>
				<path class="st0" d="M65.1,47.3l-5.8-13.9l6.2-2.6l0.9,2.1l-3.2,1.3l1.4,3.4l2.4-1l0.9,2.1l-2.4,1l1.7,4.1l3.2-1.3l0.9,2.1
					L65.1,47.3z"/>
				<path class="st0" d="M76,43l0.5-8.6l-4.7-5.8l3-0.9l2.8,3.4l0.1-4.3l2.7-0.8L80,34.2l4.9,6.1l-3,0.9l-3.1-3.8l-0.3,4.8L76,43z"
					/>
				<path class="st0" d="M100.7,37.5c-0.9,0.1-1.7,0.1-2.4-0.2c-0.7-0.2-1.2-0.7-1.6-1.3s-0.7-1.5-0.9-2.6l2.8-0.8
					c0.1,0.6,0.2,1.1,0.4,1.5c0.2,0.4,0.3,0.6,0.6,0.8s0.5,0.2,0.7,0.2c0.3,0,0.6-0.2,0.6-0.4c0.1-0.2,0.1-0.5,0.1-0.8
					c-0.1-0.6-0.3-1.1-0.6-1.5c-0.4-0.4-0.8-0.8-1.4-1.1l-1.4-1c-0.6-0.4-1.2-0.9-1.6-1.4c-0.5-0.6-0.8-1.3-0.9-2.2
					c-0.2-1.3,0.1-2.3,0.7-3c0.7-0.8,1.6-1.2,2.9-1.4c0.8-0.1,1.5-0.1,2,0.1c0.5,0.2,0.9,0.5,1.2,0.9s0.5,0.8,0.7,1.3
					c0.2,0.5,0.3,0.9,0.3,1.4l-2.8,0.7c-0.1-0.4-0.1-0.8-0.2-1.1c-0.1-0.3-0.2-0.6-0.4-0.7s-0.4-0.2-0.7-0.2c-0.3,0-0.5,0.2-0.6,0.5
					c-0.1,0.3-0.1,0.5-0.1,0.8c0.1,0.6,0.3,1,0.6,1.3c0.3,0.3,0.7,0.6,1.2,1l1.4,0.9c0.7,0.5,1.4,1,1.9,1.7c0.5,0.6,0.9,1.5,1,2.5
					c0.1,0.7,0,1.4-0.2,2c-0.2,0.6-0.6,1.1-1.2,1.5S101.5,37.4,100.7,37.5z"/>
				<path class="st0" d="M109.8,36.3l2.7-15.1l3.8,0l3,15l-3.1,0l-0.5-3.2l-2.2,0l-0.5,3.2L109.8,36.3z M113.7,31.1l1.6,0l-0.9-5.9
					L113.7,31.1z"/>
				<path class="st0" d="M125,36.7l1.6-15l6.5,0.7l-0.2,2.2l-3.2-0.3l-0.4,3.8l2.8,0.3l-0.3,2.3l-2.8-0.3l-0.7,6.6L125,36.7z"/>
				<path class="st0" d="M137.3,38.3l3.1-14.7l6.6,1.4l-0.5,2.2l-3.4-0.7l-0.8,3.7l2.6,0.5l-0.5,2.3l-2.6-0.5l-0.9,4.4l3.4,0.7
					l-0.5,2.2L137.3,38.3z"/>
				<path class="st0" d="M159.8,45c-1.1-0.4-1.8-0.9-2.3-1.5c-0.5-0.6-0.7-1.3-0.7-2.1c0-0.8,0.2-1.7,0.6-2.6l1.9-5.1
					c0.4-1,0.8-1.8,1.3-2.4c0.5-0.6,1.2-1,1.9-1.1s1.7,0,2.7,0.4c1,0.4,1.8,0.9,2.2,1.4c0.5,0.6,0.7,1.2,0.7,1.9s-0.1,1.5-0.4,2.3
					l-0.5,1.2l-3-1.2l0.5-1.4c0.1-0.3,0.2-0.5,0.3-0.8c0.1-0.3,0.1-0.5,0-0.7s-0.3-0.4-0.6-0.5c-0.3-0.1-0.6-0.1-0.8,0
					c-0.2,0.1-0.4,0.3-0.5,0.5s-0.3,0.5-0.4,0.8l-2.5,6.6c-0.1,0.3-0.2,0.6-0.2,0.9s0,0.5,0.1,0.7c0.1,0.2,0.3,0.4,0.6,0.5
					c0.3,0.1,0.6,0.1,0.8,0c0.2-0.1,0.4-0.3,0.5-0.6c0.1-0.3,0.3-0.5,0.4-0.8l0.6-1.5l3,1.2l-0.5,1.2c-0.3,0.8-0.7,1.5-1.2,2
					c-0.5,0.5-1.1,0.9-1.8,1C161.7,45.5,160.8,45.4,159.8,45z"/>
				<path class="st0" d="M168.8,48.5l9.5-12l3.4,1.8l-4.5,14.6l-2.7-1.4l1-3l-2-1l-1.9,2.6L168.8,48.5z M174.7,45.7l1.4,0.7l2-5.6
					L174.7,45.7z"/>
				<path class="st0" d="M182.2,55.9l8.8-12.2l3.4,2.4c0.8,0.6,1.5,1.2,2,1.8c0.5,0.6,0.7,1.3,0.7,2s-0.3,1.5-0.9,2.4
					c-0.4,0.5-0.7,0.9-1.1,1.3c-0.4,0.3-0.8,0.6-1.2,0.7c-0.4,0.1-0.9,0.2-1.4,0.1l-2.6,7.1l-2.8-2l2.6-6.4l-0.8-0.6l-3.9,5.5
					L182.2,55.9z M189.9,50.8l0.8,0.5c0.4,0.3,0.7,0.4,1,0.4c0.3,0,0.6-0.1,0.9-0.3c0.3-0.2,0.5-0.5,0.8-0.8c0.4-0.5,0.6-1,0.6-1.4
					c0-0.4-0.2-0.8-0.7-1.2l-0.9-0.6L189.9,50.8z"/>
			</g>
			<g>
				<path class="st0" d="M119.8,55.9l2.3,6.6c0,0,5.4,2.6,8.6,5.7c1.8,1.8,2.7,4.4,3.1,6.3c-3.1-1.1-6.9-2.2-9.6-2.1
					c-0.2-0.4-0.3-0.8-0.6-1c-1.7-1.4-4.3-0.9-4.3-0.9s2.9,0.3,3.1,2.6s0.6,6-1.1,6.8s-8,1.1-8,1.1s7.7,2,10-0.3
					c0.7-0.7,1.2-3.1,1.3-5.4c1.6,0.1,7.7,0.8,14.8,4.5c-0.8,1.6-2.6,2.2-1.8,3.5c0.9,1.4,2,0.6-0.3,4.3c0,0,2,0.3,2.6-1.4
					s-1.4-2.9-0.3-4c1.1-1.1,2.9-2.9,1.7-4c-0.5-0.5-1.1-0.8-1.5-1.1c-0.1-0.2-0.2-0.4-0.2-0.4s-0.4-0.2-1.2-0.5
					c-0.8-1.8-4.3-8-5.6-9.8c-2-2.6-3.8-3.9-5.2-4.6c-1.9-0.9-3.1-2.7-3.5-4.8c-0.3-1.7-1-3.5-2.2-4c-2.6-1.1-16.5,6.8-16.5,6.8
					l-1.1,5.7l2.3-5.4L119.8,55.9z"/>
				<path class="st0" d="M93,87.5c1.1,2,3.1,1.1,3.1,1.1s-2.6-1.4-2.6-2.9s0.9-2.3,0.9-3.7c0-0.4-0.1-0.7-0.2-1
					c1.2-0.9,3.6-2.3,6.8-3.7c3-1.2,7.6-2.1,8.1-2.7c0.1,0.9,0.2,1.7,0.2,1.7s-0.9-5.7,4.9-5.7c0,0-4.3-0.9-4.9,0.9
					c-0.1,0.4-0.2,0.8-0.2,1.2c-1.3,0.1-3.6,0.9-5.9,1.9c0.3-0.3,0.5-0.6,0.7-0.9c2.1-2.9,2.9-7.6,3.3-10.1c0,0-1.9,6.4-4.5,9.8
					c-0.7,0.9-1.3,1.7-1.9,2.3c-0.1,0.1-0.3,0.1-0.4,0.2c-2.4,1.1-5.2,3.3-6.5,4.4c-0.2-0.4-0.4-0.7-0.2-1.1
					c0.1-0.3,0.3-0.6,0.6-0.9c1-0.6,2.7-1.9,4.6-3.9c1.9-2,3.2-4.5,3.8-5.7c-0.7,1.2-2.5,3.1-4.4,4.3c-1.8,1.1-2.9,3.2-3.3,3.9
					c-0.8-0.1-2.3-0.1-2.7,1.8c-0.6,2.6,0.6,2.9,0.6,4C92.7,83.8,91.9,85.5,93,87.5z"/>
				<path class="st0" d="M112.2,75.8c0,2.2,1.8,4,4,4s4-1.8,4-4c0-2.2-1.8-4-4-4S112.2,73.6,112.2,75.8z"/>
				<path class="st0" d="M125,69c2.6,2,4.9,3.1,4.9,3.1s0.6-0.6-1.7-2.9c-2.3-2.3-6.6-4-7.7-4.9c-1.1-0.9-2-4.3-2-4.3
					s-0.9,3.4,0.3,4.9C119.8,66.4,122.4,67,125,69z"/>
				<path class="st0" d="M117.8,68.7c0,0-0.9-1.4-1.7-2.9s-1.4-4.6-1.4-4.6C114.1,68.1,117.8,68.7,117.8,68.7z"/>
				<path class="st0" d="M112.7,68.4c0,0,0.2-1.4,0-2.7c-0.3-1.3-0.3-3.5-0.3-3.5C111,67,112.7,68.4,112.7,68.4z"/>
				<path class="st0" d="M94.2,91c-0.9,1.5,0.5,4.1,1.3,6.5c0.9,2.4,2,5.1,2.1,4.3c0.1-0.7-3.7-9.7,0.5-7.7c0.3,1.7,0.8,3.5,1.8,5.2
					c1.3,2.3,1,4.9,1.4,4.9c0.2,0.1,3.7-2.8,5.9-3.7c2.1-0.8,1.4-0.9,3.1-1.2c0,0,0,0,0,0l1-6c-0.9,0.4-2,1-2,1s-2.8,0.4-3.8,0.3
					c-0.6-0.1-2.5-1.2-4.1-2.2c1.7-1.2,4.6-2.3,4.6-2.3s-2-0.4-3.3-0.3c-0.8,0.1-2.3,0.7-3.2,1.1c0,0,0,0,0,0
					c-0.8,0.5-0.2-0.1-0.2-0.1l0.3-1.2c1.5-1,4.2-2.5,7.7-1.9c0.6,0.1,1.5,0.2,2.4,0.2c0,0,0,0,0,0s4.2,1.5,13.9-0.3
					c3.5-0.6,6,0.9,7.1,1.9l-0.5,0.9c-0.7-0.3-1.5-0.6-2-0.6c-1.2-0.1-4,0.2-4,0.2s2.9,0.9,4.8,1.9c-0.8,0.7-2.3,2-4,2.6
					c-0.8,0.3-2.7,0-4.6-0.2c-0.1-0.2-0.3-0.5-0.5-0.7c-2.3-2.3-4.1-3.5-4.1-3.5s-0.9,6.9-0.9,8.3s0.9,0.9,1.7,1.1s2.3,1.4,2.3,1.4
					s2.3,0,0.9-1.7c-0.7-0.8-1.3-0.9-1.8-0.8c0.3-0.2,0.6-0.4,1-0.7c0.9,0.2,1.9,0.6,3,1.5c1.5,1.3,3.3,2.5,4.6,3.2
					c1.5,0.8,3.1,1.1,3.1,1.1s0-2.2,0.9-4.3c0.4-1.1,0.8-3.1,1-5.1c0.1,0,0.1-0.1,0.2-0.1c4.6-2.5,0.7,6.8,0.8,7.6s1.2-1.9,2.1-4.3
					c0.9-2.4,2.3-5.1,1.3-6.5s-4.1,1.6-4.1,1.6s-0.1,0.1-0.1,0.2c0-0.3,0.1-0.6,0.1-0.9c0-0.2,0.1-0.4,0.1-0.4s0,0,0,0
					c0.1-1.2,0.2-2.1,0.2-2.7l0.2-0.3c0,0,0.3-2.1-9-4.1c-4.1-0.9-7.7-0.9-10.1-0.7c-1.3,0-3.2,0.2-5.6,0.7c-8,1.6-9.3,3.1-9.5,3.5
					l0,0c0,0-0.4,1.9-0.3,4.4C97.1,91.6,95,89.8,94.2,91z M118,87c-0.1,0-0.6,0-2.1,0.1c-2.1,0-3.7-1.5-3.7-1.5l4.8-0.4l3.1,0
					L118,87z"/>
				<path class="st0" d="M127.8,108.1c3.7,0,5.7-3.1,5.7-3.1s-2,0.3-3.1,0.3c-1.1,0-2.6,0-5.1-1.7c-2.6-1.7-6-1.1-6-1.1
					c0.6,2.9,4.7,6.4,3.5,5s-0.3-3.1-0.3-3.1S124.1,108.1,127.8,108.1z"/>
				<path class="st0" d="M105.1,104.2c-2.1,1.7-2.5,2.1-3.4,2.7c-1.3,0.9-4-0.9-4-0.9s1,2.3,3.9,1.7c2.9-0.6,3-1.6,5-2.7
					c2-1.1,6-2.3,6-2.3S107.8,102.1,105.1,104.2z"/>
				<path class="st0" d="M134.7,84.4c0.6-2-0.6-3.4-0.6-3.4s-0.3,3.1-1.7,4.6C132.4,85.5,134.1,86.4,134.7,84.4z"/>
				<path class="st0" d="M131.3,82.7c0.6-2-0.6-3.4-0.6-3.4s-0.3,3.1-1.7,4.6C129,83.8,130.7,84.7,131.3,82.7z"/>
				<path class="st0" d="M127.5,81.3c0.6-2-0.6-3.4-0.6-3.4s-0.3,3.1-1.7,4.6C125.3,82.4,127,83.3,127.5,81.3z"/>
				<path class="st0" d="M134.7,113.8c1.1-2.6-0.3-5.7-0.3-5.7s-4.4,2.6-6.9,2.5c-2.4-0.1-4.9-1.1-6.4-0.2c-2.3,1.5-4.7,1-4.7,1
					c0.1,1.3,1.3,4.1,1.3,5.3c0,14.9,0.2,18.5,1.2,17.7c0.9-0.7,0.7-1.1,3.5-3.2c0.5-2.2,1-5.1,1-8.8c0-4.6-0.9-8-0.9-8
					s2.6,4.3,3.4,10.8c0.1,1.1,0.2,2.2,0.3,3.1c0.9-0.6,1.7-1.3,2.4-1.9c0.1-1.4,0.1-2.9,0-4.5c-0.3-4.1-1.2-7.1-1.2-7.1
					s2.5,3.5,3.6,9.2c0.7-0.8,1.2-1.6,1.6-2.3c-0.1-0.5-0.1-1-0.2-1.5c-0.6-3.4-1.7-5.9-1.7-5.9s1.6,1.8,3,4.9
					C134.4,116.8,134.1,115,134.7,113.8z"/>
				<path class="st0" d="M109.4,126.2c-0.1,1.1-0.2,2.2-0.3,3.1c0.3,0.2,0.5,0.4,0.8,0.6c1.3,0.9,2.3,1.6,3,2.2
					c-0.5-2.2-1-5.1-1-8.8c0-4.6,0.9-8,0.9-8S110.3,119.6,109.4,126.2z"/>
				<path class="st0" d="M108,115.8c0,0-2.5,3.5-3.6,9.2c0.6,0.8,1.4,1.6,2.4,2.5c-0.1-1.4-0.1-2.9,0-4.5
					C107.1,118.8,108,115.8,108,115.8z"/>
				<path class="st0" d="M103.1,121.1c0.6-3.4,1.7-5.9,1.7-5.9s-1.6,1.8-3,4.9c0.2,0.8,0.5,1.6,1,2.5
					C102.9,122.1,103,121.6,103.1,121.1z"/>
				<path class="st0" d="M102.5,68.7c0.2-0.3,0.3-0.5,0.4-0.7C103,67.7,102.8,68.1,102.5,68.7z"/>
				<path class="st0" d="M100.9,120.5c0,0-3.9-8-1.1-11.2c0,0-4.1-0.2-2.8,3.8C99,119,100.9,120.5,100.9,120.5z"/>
				<path class="st0" d="M114.8,101.9c2.7-0.3-1.4-0.1-1.7-2.7C113.1,99.2,111.9,102.2,114.8,101.9z"/>
				<path class="st0" d="M98.4,86.1c1.1,0.9,1.1-0.6,1.1-0.6s-2,0-1.7-3.4C97.9,82.1,97.3,85.3,98.4,86.1z"/>
				<path class="st0" d="M100.8,81.1c0-0.3,0-0.4,0-0.4C100.7,80.8,100.7,81,100.8,81.1z"/>
				<path class="st0" d="M102.1,84.7c1.1,0-1.1-1.7-1.4-3.6C100.9,82.1,101.2,84.7,102.1,84.7z"/>
				<path class="st0" d="M105.9,83.6c1.3,0.1-1.1-1.8-1.3-3.7C104.6,80.9,104.8,83.5,105.9,83.6z"/>
				<path class="st0" d="M104.6,79.9c0-0.3,0-0.4,0-0.4C104.5,79.6,104.5,79.8,104.6,79.9z"/>
				<path class="st0" d="M135.8,119.5l0,0.1c-0.4-0.1-0.6-0.1-0.6-0.1l1.7,2.8l4,10c0,0-4.6-1.5-9.5,0c-1.3,0.4-3.2,1.5-6.9,6.3
					c-5.4,7.1-6.4,11.4-6.4,11.4s2.7-4.3,7.2-9.7c4.7-5.6,6.2-6.2,7.7-6.5c3.6-0.6,7.9,0.6,10.6,1.6l-1,6.3
					c-3.1-0.2-6.3,0.4-6.3,0.4s9.1,0.6,9.4,2.9c0.3,2.3-2,2.9-2,2.9l-1.1,6.5c-0.3,0-0.4,0-0.4,0s6,1.4,6.8,3.4
					c0.9,2-1.4,19.4-1.4,19.4s1.1,0.8,1.4-4s2-13.7,2-16.5c0-1.9-3.8-2.3-6.4-2.3l0.3-6.2c1.3,0.2,3.2,0,3.2-3.2
					c0-1.7-1.5-2.6-3.4-3l0.3-6.1c0.9,0.4,1.5,0.6,1.5,0.6l-6.8-12.5c1.4,0.4,3.1,0.9,3.9,1.2c3.5,1.4,13.6,6.6,13.6,6.6
					s-4.2-4.6-9.7-7.7c-5.2-2.9-9.6-4.1-11.3-4.4L135.8,119.5z"/>
				<path class="st0" d="M91.9,122.6c1.7-0.6,5.4-5.4,5.4-5.4l-6.3,3.7c0,0-4-0.3-10.3,2.6c-6.3,2.9-8,7.4-8,7.4s3.1-2.9,7.1-5.1
					C83.9,123.5,90.2,123.2,91.9,122.6z"/>
				<path class="st0" d="M92.4,133.7l-7.4,3.8l9.5-2.4l-0.6,6.5c-3-0.1-6,0.4-6,0.4s9.1,0.6,9.4,2.9c0.1,1.1-0.4,1.9-0.9,2.3h-1.1
					l-1.1,6.4c-1,0.2-1.5,0.4-1.5,0.4l4.3,1.7c0,0,4-0.9,15.4-1.4c11.4-0.6,22.8,0,22.8,0s-8.8-2.6-21.1-2.9
					c-7.7-0.2-14.2,0.9-17.9,1.7l0.2-5.1c1.3,0.2,3.2,0.1,3.2-3.2c0-1.8-1.6-2.7-3.7-3l0.2-6.8c2.4,0.6,10.1,3.5,19.4,14.9
					c0,0-5.4-7.4-10.3-12c-3.5-3.3-7.2-4.8-9.1-5.4l3.4-7.8L92.4,133.7z"/>
				<path class="st0" d="M149.5,134.4c0,0,7.1,1.3,13,6.4s4.7,14.5,4.7,14.5s2-0.5,2.6-4c0.6-3,1.2-4.5,1.4-4.9
					c-0.1,0.3-0.4,1.5,0.4,4.4c1,3.5-0.7,8.4-0.7,8.4s7.8-12.5-0.8-20.5S149.5,134.4,149.5,134.4z"/>
				<path class="st0" d="M166.2,156.6c-1.6,0.8-3.9,4.5-3.9,4.5C165.7,159.8,166.2,156.6,166.2,156.6z"/>
				<path class="st0" d="M181.8,174c0.3-2.9-1.4-4-1.4-4s1.1-2.9-2.3-6c-0.8-0.8-1.9-1.3-3-1.6c0.7-0.3,1.4-1.1,1.8-2.8
					c1.2-5-2.2-11.2-2.2-11.2c3.5,10-2.3,13.4-2.3,13.4s0.1,0.1,0.2,0.2c-2.8-0.3-5.3,0.1-5.3,0.1s8.6,1.1,9.7,4.3
					c1.4,3.8-4,2.6-4,2.6s5.7,1.7,6.3,4.6c0.2,0.8-1.1,1.5-2.1,1.9c-3.4-2.2-8.7-4-15.6-2.7c0,0,8.3,0.6,13.7,4.6
					c4.4,3.3,4.6,7.7,4.6,7.7s3.1-2.3,1.4-5.4c-0.3-0.5-0.7-1.1-1.3-1.7C180.6,177,181.6,175.8,181.8,174z"/>
				<path class="st0" d="M55.4,146c0,0,4-8.8,11.4-9.1s11.8,2.3,11.8,2.3s0.5-1.7-3.3-2.6c-3.7-0.9-1.4-3.4-1.4-3.4
					s-9.4-1.4-14.8,5.4S55.4,146,55.4,146z"/>
				<path class="st0" d="M132.1,182.9c-0.2-0.1-0.5-0.2-0.9-0.4C131.6,182.7,131.9,182.8,132.1,182.9c-0.1,0-0.2,0.1-0.2,0.1
					S132,182.9,132.1,182.9c0.1,0,0.2,0.1,0.2,0.1S132.2,182.9,132.1,182.9C132.1,182.9,132.2,182.9,132.1,182.9
					C132.2,182.9,132.1,182.9,132.1,182.9z"/>
				<path class="st0" d="M141,177.3c2.9-3.6,4.5-16.8,4.5-16.8s-3.2-0.1-6.7-1.1c-2.9-0.8-5.9-2.2-5.9-2.2l0.2,7l2.4-4.3l-0.7-0.7
					c0.9,0.8,2,1.6,3.4,2.2c3.2,1.4,4.3,2.2,4.3,2.2s0.5,7.3-2.9,12.3c-3.6,5.2-6.6,6.6-7.4,7C133.4,182.4,138.4,180.5,141,177.3z"
					/>
				<path class="st0" d="M124,175.9c-3.4-5-3.5-13.5-3.5-13.5s2.3-0.2,5.5-1.6c3.2-1.4,5.3-3.6,5.3-3.6s-2.9,1.4-5.9,2.2
					c-3.5,1-6.7,1.1-6.7,1.1s1.6,13.1,4.5,16.8c2.2,2.7,6.1,4.5,7.9,5.3C129.7,181.8,126.9,180.1,124,175.9z"/>
				<path class="st0" d="M53.1,172.3c0,0-2.3-2-1.1-3.7s4.6-4.9,4.6-4.9s-5.1,2.3-5.7,4.6s0,4,0,4s-2.6,2-1.7,4.3
					c0.9,2.3,4,1.1,4,1.1s-2.6-1.1-2.6-2.6S53.1,172.3,53.1,172.3z"/>
				<path class="st0" d="M59.1,192.8c0,0-2.2-6-2.6-8.3c-0.6-3.1,0.6-5.4,0.6-5.4l-3.7,1.7c0,0,0.4,4.6,1.7,7.1
					C57.1,191.7,59.1,192.8,59.1,192.8z"/>
				<path class="st0" d="M91.9,209.9c-10.6-0.3-23.1-1.5-23.1-1.5l-5.4,0.5c0,0-4.4-8.4-5.4-11.8c-0.3-1.1-0.2,2.8,0.3,4.6
					c1,4.4,3.7,9.7,3.7,9.7l6.6-1.2l6.6,1.4c0,0,8.3,1.1,18,0.5c9.7-0.5,28-6.1,28-6.1S102.4,210.2,91.9,209.9z"/>
				<path class="st0" d="M67.9,204.8c3.1,0.9,3.7-0.9,3.7-0.9s-2.9,0.6-5.1-2c-2.3-2.6-3.7-5.4-3.7-5.4S61.8,203.1,67.9,204.8z"/>
				<path class="st0" d="M81,190.3c0,0,2.3,1.8,6.6,2.6c4.6,0.9,11.1,0.9,11.1,0.9s-2.6-0.9-7.7-2.3C85.9,190,81,190.3,81,190.3z"/>
				<path class="st0" d="M104.1,203.4c-1.4,0-25.4,2-25.4,2C91,207.9,105.6,203.4,104.1,203.4z"/>
				<path class="st0" d="M73,161.2c6-0.9,7.1,2.6,7.1,2.6s2.6,0,2.3-2s-4.3-2.6-8.6-2.6c-4.3,0-12.8,2.6-12.8,2.6S67.1,162,73,161.2
					z"/>
				<path class="st0" d="M73,172.9c0,0,2.3,0.6,4.5,1c0,0,0,0,0.1,0c2.9,1.1,3.1,15.8,3.1,15.8s1.4-3.7,1.1-7.7
					c-0.2-2.8-1-6.3-1.4-8.1c2-0.6,3-3.5,2.2-6.7c-0.9-3.7-13.7-0.3-13.7-0.3s11.4,0.9,11.7,3.4C81,172.9,73,172.9,73,172.9z"/>
				<path class="st0" d="M73,155.4c2.7,2.6,6.3,2.9,6.3,2.9s-1.4-1.1-5.1-4c-3.7-2.9-2.6-6.8-2.6-6.8S68.5,151.1,73,155.4z"/>
				<path class="st0" d="M79.4,157.5l-1.8-8.8c0,0-2,3.1-0.7,5.4C78.1,156.3,79.4,157.5,79.4,157.5z"/>
				<path class="st0" d="M55,161.7c0,0-5.8-1.6-2.3-11.6c0,0-2.8,4.6-1.6,9.5C52.3,164.6,55,161.7,55,161.7z"/>
				<path class="st0" d="M161.5,192c-2.6-5.1-16.8-7.4-16.8-7.4l-12,2.9c0,0-28.5-6-31.7-6.3c-3.1-0.3-11.4,6-11.4,6
					s8.6-4.6,11.4-4.6c2.9,0,31.4,7.7,31.4,7.7s7.1-0.9,13.7-1.7S161.8,192.5,161.5,192z"/>
				<path class="st0" d="M111.3,197.7c0,0,10.8,6.6,21.4,11.1c6.4,2.8,13.7,4.2,18.5,4.8c-0.6,0.3-3.6,1.8-3.9,3.8
					c-0.3,2.2,1.1,5.3,1.4,2.6c0.3-2.5,2.3-5.9,2.5-6.4c3.1,0.4,5.1,0.6,5.1,0.6S120.4,203.4,111.3,197.7z"/>
				<path class="st0" d="M151.7,185.4c1.5,1.7-0.5-5.9,1.1-10.9C152.8,174.5,147.6,180.8,151.7,185.4z"/>
				<path class="st0" d="M175.6,181.4c-2-2.1-3.1-1.1-3.1-1.1s1.3,3.4,0.5,6.2c-1.5,4.9-5.3,7-5.3,7s2.5-0.2,7-3.7
					c0.5-0.4,0.8-0.7,1.2-1.1c-0.6,2.6-2,6.8-4.2,10.7c-2.8,5.1-6.7,9.7-6.7,9.7s4.9-0.8,9.1-9.7c2.7-5.5,2.5-9.5,2.2-11.4
					C178.3,185,176.3,182.2,175.6,181.4z"/>
				<path class="st0" d="M107.4,133.9c2,1.7,6.4,4.9,6.4,3.1s-7.5-5.7-9.5-9.4C104.3,127.6,105.4,132.2,107.4,133.9z"/>
				<path class="st0" d="M158.6,208.8c-2.3-0.6-3.4-3.4-6.3-4c-2.9-0.6-31.2-9.1-42.2-14.8c0,0,20.3,11.1,27.1,13.4
					c6.8,2.3,14.3,4.9,14.3,4.9l3.4,3.1c0,0,5.4,1.7,7.4-0.9c2-2.6,4.3-10.6,4.3-10.6S160.9,209.4,158.6,208.8z"/>
				<path class="st0" d="M143.8,193.8c0,0,10.6,4.1,15.4,3.2c0,0-2.9-3-7.7-3.7C146.7,192.7,143.8,193.8,143.8,193.8z"/>
				<path class="st0" d="M81.6,157.3c0,1.1,2.7,0.8,2.7,0.8s2.3,0.8,3-2.3c0.6-2.3,0-6.8,0-6.8l-2.1,6.8
					C85.2,155.7,81.6,156.1,81.6,157.3z"/>
				<path class="st0" d="M116.7,108.5c2.2-0.2,3.6,1,3.4-1.9c0-0.5-2-0.4-3.9-0.2c-0.7,0.1-1.4,0-2,0c-0.3,0.5-0.7,1-1.4,1.3
					C113.4,109.4,115.7,108.6,116.7,108.5z"/>
				<path class="st0" d="M109.4,106.3c-2.1,0.9-4.8,2.1-4.8,2.1s5.5,0.3,7.4-0.9c2-1.1,1-4.3,1-4.3S112.2,105,109.4,106.3z"/>
				<path class="st0" d="M81.7,213.6c0,0,0.6,1.9,1.4,4.6c0.9,2.6,1.1,4.3,1.1,4.3s0.9-2.2,0.3-4.6C84,215.5,81.7,213.6,81.7,213.6z
					"/>
				<path class="st0" d="M110.4,99.4L110.4,99.4C110.5,99.4,110.5,99.4,110.4,99.4z"/>
				<path class="st0" d="M110.4,99.5L110.4,99.5C110.4,99.5,110.3,99.6,110.4,99.5z"/>
				<path class="st0" d="M124.1,173.7h1.7l0.3-1.7h1.2l0.3,1.7h1.7l-1.5-8.1h-2L124.1,173.7z M126.7,167.7l0.4,3.2h-0.9L126.7,167.7
					z"/>
				<path class="st0" d="M132.1,166.8c0.2,0,0.3,0,0.3,0.1c0.1,0.1,0.1,0.2,0.1,0.4c0,0.2,0,0.4,0,0.6l1.5-0.2c0-0.2,0-0.5-0.1-0.8
					c0-0.3-0.1-0.5-0.3-0.8c-0.1-0.2-0.3-0.4-0.6-0.6c-0.3-0.1-0.6-0.2-1-0.2c-0.7,0-1.3,0.2-1.7,0.5c-0.4,0.4-0.6,0.9-0.6,1.6
					c0,0.5,0.1,0.9,0.3,1.2c0.2,0.3,0.5,0.6,0.8,0.9l0.7,0.6c0.3,0.2,0.5,0.5,0.7,0.7c0.2,0.2,0.2,0.5,0.2,0.8c0,0.1,0,0.3-0.1,0.4
					c-0.1,0.1-0.2,0.2-0.4,0.2c-0.1,0-0.3,0-0.4-0.1c-0.1-0.1-0.2-0.2-0.2-0.5s-0.1-0.5-0.1-0.8l-1.5,0.2c0,0.6,0.1,1.1,0.3,1.5
					s0.4,0.7,0.8,0.8c0.3,0.2,0.8,0.3,1.3,0.3c0.4,0,0.8-0.1,1.1-0.3s0.6-0.4,0.7-0.7c0.2-0.3,0.3-0.7,0.3-1c0-0.6-0.1-1-0.4-1.4
					s-0.5-0.7-0.9-1l-0.7-0.6c-0.2-0.2-0.4-0.4-0.6-0.6s-0.2-0.4-0.2-0.7c0-0.1,0-0.3,0.1-0.4S131.9,166.8,132.1,166.8z"/>
				<path class="st0" d="M139.9,168.5v-0.7c0-0.5-0.1-0.9-0.2-1.2s-0.4-0.6-0.7-0.8s-0.8-0.3-1.4-0.3c-0.6,0-1.1,0.1-1.5,0.3
					s-0.6,0.5-0.8,0.9c-0.1,0.4-0.2,0.9-0.2,1.5v2.9c0,0.5,0.1,1,0.2,1.4c0.1,0.4,0.4,0.7,0.8,0.9c0.4,0.2,0.8,0.3,1.5,0.3
					c0.6,0,1.1-0.1,1.4-0.3c0.3-0.2,0.6-0.5,0.7-0.9c0.1-0.4,0.2-0.8,0.2-1.2v-0.7h-1.8v0.9c0,0.2,0,0.3,0,0.5
					c0,0.2-0.1,0.3-0.2,0.4c-0.1,0.1-0.2,0.1-0.4,0.1c-0.2,0-0.3,0-0.4-0.1c-0.1-0.1-0.2-0.2-0.2-0.4s0-0.3,0-0.5v-3.8
					c0-0.2,0-0.3,0-0.5s0.1-0.3,0.2-0.4c0.1-0.1,0.2-0.2,0.4-0.2c0.2,0,0.3,0,0.4,0.1s0.1,0.2,0.1,0.4s0,0.3,0,0.5v0.8H139.9z"/>
			</g>
		</g>
	</g>
</g>
<g id="Слой_2" class="st1">
	<rect x="14.3" y="-199.7" class="st2" width="104.7" height="231.7"/>
</g>
</svg>
