<?xml version="1.0" encoding="utf-8"?>
<!-- Generator: Adobe Illustrator 23.1.0, SVG Export Plug-In . SVG Version: 6.00 Build 0)  -->
<svg version="1.1" xmlns="http://www.w3.org/2000/svg" xmlns:xlink="http://www.w3.org/1999/xlink" x="0px" y="0px"
	 viewBox="0 0 227.3 281.9" style="enable-background:new 0 0 227.3 281.9;" xml:space="preserve">
<style type="text/css">
	.st0{fill:#FFFFFF;}
	.st1{display:none;}
	.st2{display:inline;opacity:0.32;fill:#E18C44;}
</style>
<g id="Слой_1">
	<rect x="0.3" y="-0.6" width="228" height="284"/>
	<g>
		<g>
			<path class="st0" d="M114.3,263.5l-0.2-0.1c-5.6-1.9-25.7-9.8-51-33c-23.8-21.8-29.4-40.5-30.6-45.7c-1.4-6.4-1.1-90.3-1-112.4
				l1.5,0c-0.2,32.7-0.3,106.4,0.9,112.1c1.1,5.1,6.7,23.4,30.1,44.9c24.8,22.8,44.5,30.6,50.3,32.6c5.8-2,25.4-9.9,50.3-32.6
				c23.4-21.5,29-39.8,30.1-44.9c1.3-5.7,1.2-79.3,0.9-112.1l1.5,0c0.2,22.1,0.5,106-1,112.4c-1.2,5.2-6.8,23.9-30.6,45.7
				c-25.4,23.3-45.5,31.2-51,33L114.3,263.5z"/>
		</g>
		<g>
			<path class="st0" d="M38.9,63.1l-7-13.6l3-2.3l11.4,10.2L44,59.2L41.6,57l-1.7,1.4l1.5,2.8L38.9,63.1z M38.9,56.6l1.3-1l-4.2-4.2
				L38.9,56.6z"/>
			<path class="st0" d="M51.2,54.2l-7.4-13.1l4.4-2.5c0.8-0.4,1.5-0.7,2.2-0.6c0.7,0,1.3,0.2,1.9,0.7c0.6,0.4,1.1,1,1.5,1.9
				c0.6,1,0.8,1.9,0.8,2.6c0,0.7-0.3,1.3-0.7,1.9c-0.5,0.5-1,1-1.8,1.4L51,47l3.1,5.6L51.2,54.2z M49.9,45l1-0.5
				c0.4-0.2,0.6-0.4,0.7-0.6c0.1-0.2,0.1-0.5,0-0.8c-0.1-0.3-0.2-0.6-0.5-1c-0.2-0.3-0.4-0.6-0.6-0.8c-0.2-0.2-0.4-0.4-0.7-0.4
				c-0.3,0-0.6,0-1,0.3l-1,0.5L49.9,45z"/>
			<path class="st0" d="M64.5,47.3l-5.8-13.9l6.2-2.6l0.9,2.1l-3.2,1.3l1.4,3.4l2.4-1l0.9,2.1l-2.4,1l1.7,4.1l3.2-1.3l0.9,2.1
				L64.5,47.3z"/>
			<path class="st0" d="M75.3,43l0.5-8.6l-4.7-5.8l3-0.9l2.8,3.4l0.1-4.3l2.7-0.8l-0.3,8.3l4.9,6.1l-3,0.9l-3.1-3.8L78,42.2L75.3,43
				z"/>
			<path class="st0" d="M100,37.5c-0.9,0.1-1.7,0.1-2.4-0.2C97,37,96.4,36.6,96,35.9s-0.7-1.5-0.9-2.6l2.8-0.8
				c0.1,0.6,0.2,1.1,0.4,1.5c0.2,0.4,0.3,0.6,0.6,0.8s0.5,0.2,0.7,0.2c0.3,0,0.6-0.2,0.6-0.4c0.1-0.2,0.1-0.5,0.1-0.8
				c-0.1-0.6-0.3-1.1-0.6-1.5c-0.4-0.4-0.8-0.8-1.4-1.1l-1.4-1c-0.6-0.4-1.2-0.9-1.6-1.4c-0.5-0.6-0.8-1.3-0.9-2.2
				c-0.2-1.3,0.1-2.3,0.7-3c0.7-0.8,1.6-1.2,2.9-1.4c0.8-0.1,1.5-0.1,2,0.1c0.5,0.2,0.9,0.5,1.2,0.9s0.5,0.8,0.7,1.3
				c0.2,0.5,0.3,0.9,0.3,1.4l-2.8,0.7c-0.1-0.4-0.1-0.8-0.2-1.1c-0.1-0.3-0.2-0.6-0.4-0.7s-0.4-0.2-0.7-0.2c-0.3,0-0.5,0.2-0.6,0.5
				c-0.1,0.3-0.1,0.5-0.1,0.8c0.1,0.6,0.3,1,0.6,1.3c0.3,0.3,0.7,0.6,1.2,1l1.4,0.9c0.7,0.5,1.4,1,1.9,1.7c0.5,0.6,0.9,1.5,1,2.5
				c0.1,0.7,0,1.4-0.2,2c-0.2,0.6-0.6,1.1-1.2,1.5S100.8,37.4,100,37.5z"/>
			<path class="st0" d="M109.1,36.3l2.7-15.1l3.8,0l3,15l-3.1,0l-0.5-3.2l-2.2,0l-0.5,3.2L109.1,36.3z M113,31.1l1.6,0l-0.9-5.9
				L113,31.1z"/>
			<path class="st0" d="M124.4,36.7l1.6-15l6.5,0.7l-0.2,2.2l-3.2-0.3l-0.4,3.8l2.8,0.3l-0.3,2.3l-2.8-0.3l-0.7,6.6L124.4,36.7z"/>
			<path class="st0" d="M136.7,38.3l3.1-14.7l6.6,1.4l-0.5,2.2l-3.4-0.7l-0.8,3.7l2.6,0.5l-0.5,2.3l-2.6-0.5l-0.9,4.4l3.4,0.7
				l-0.5,2.2L136.7,38.3z"/>
			<path class="st0" d="M159.1,45c-1.1-0.4-1.8-0.9-2.3-1.5c-0.5-0.6-0.7-1.3-0.7-2.1c0-0.8,0.2-1.7,0.6-2.6l1.9-5.1
				c0.4-1,0.8-1.8,1.3-2.4c0.5-0.6,1.2-1,1.9-1.1s1.7,0,2.7,0.4c1,0.4,1.8,0.9,2.2,1.4c0.5,0.6,0.7,1.2,0.7,1.9s-0.1,1.5-0.4,2.3
				l-0.5,1.2l-3-1.2l0.5-1.4c0.1-0.3,0.2-0.5,0.3-0.8c0.1-0.3,0.1-0.5,0-0.7s-0.3-0.4-0.6-0.5c-0.3-0.1-0.6-0.1-0.8,0
				c-0.2,0.1-0.4,0.3-0.5,0.5s-0.3,0.5-0.4,0.8l-2.5,6.6c-0.1,0.3-0.2,0.6-0.2,0.9s0,0.5,0.1,0.7c0.1,0.2,0.3,0.4,0.6,0.5
				c0.3,0.1,0.6,0.1,0.8,0c0.2-0.1,0.4-0.3,0.5-0.6c0.1-0.3,0.3-0.5,0.4-0.8l0.6-1.5l3,1.2l-0.5,1.2c-0.3,0.8-0.7,1.5-1.2,2
				c-0.5,0.5-1.1,0.9-1.8,1C161.1,45.5,160.2,45.4,159.1,45z"/>
			<path class="st0" d="M168.2,48.5l9.5-12l3.4,1.8l-4.5,14.6l-2.7-1.4l1-3l-2-1l-1.9,2.6L168.2,48.5z M174.1,45.7l1.4,0.7l2-5.6
				L174.1,45.7z"/>
			<path class="st0" d="M181.5,55.9l8.8-12.2l3.4,2.4c0.8,0.6,1.5,1.2,2,1.8c0.5,0.6,0.7,1.3,0.7,2s-0.3,1.5-0.9,2.4
				c-0.4,0.5-0.7,0.9-1.1,1.3c-0.4,0.3-0.8,0.6-1.2,0.7c-0.4,0.1-0.9,0.2-1.4,0.1l-2.6,7.1l-2.8-2l2.6-6.4l-0.8-0.6l-3.9,5.5
				L181.5,55.9z M189.2,50.8l0.8,0.5c0.4,0.3,0.7,0.4,1,0.4c0.3,0,0.6-0.1,0.9-0.3c0.3-0.2,0.5-0.5,0.8-0.8c0.4-0.5,0.6-1,0.6-1.4
				c0-0.4-0.2-0.8-0.7-1.2l-0.9-0.6L189.2,50.8z"/>
		</g>
		<g>
			<path class="st0" d="M119.2,55.9l2.3,6.6c0,0,5.4,2.6,8.6,5.7c1.8,1.8,2.7,4.4,3.1,6.3c-3.1-1.1-6.9-2.2-9.6-2.1
				c-0.2-0.4-0.3-0.8-0.6-1c-1.7-1.4-4.3-0.9-4.3-0.9s2.9,0.3,3.1,2.6s0.6,6-1.1,6.8s-8,1.1-8,1.1s7.7,2,10-0.3
				c0.7-0.7,1.2-3.1,1.3-5.4c1.6,0.1,7.7,0.8,14.8,4.5c-0.8,1.6-2.6,2.2-1.8,3.5c0.9,1.4,2,0.6-0.3,4.3c0,0,2,0.3,2.6-1.4
				s-1.4-2.9-0.3-4c1.1-1.1,2.9-2.9,1.7-4c-0.5-0.5-1.1-0.8-1.5-1.1c-0.1-0.2-0.2-0.4-0.2-0.4s-0.4-0.2-1.2-0.5
				c-0.8-1.8-4.3-8-5.6-9.8c-2-2.6-3.8-3.9-5.2-4.6c-1.9-0.9-3.1-2.7-3.5-4.8c-0.3-1.7-1-3.5-2.2-4c-2.6-1.1-16.5,6.8-16.5,6.8
				l-1.1,5.7l2.3-5.4L119.2,55.9z"/>
			<path class="st0" d="M92.3,87.5c1.1,2,3.1,1.1,3.1,1.1s-2.6-1.4-2.6-2.9s0.9-2.3,0.9-3.7c0-0.4-0.1-0.7-0.2-1
				c1.2-0.9,3.6-2.3,6.8-3.7c3-1.2,7.6-2.1,8.1-2.7c0.1,0.9,0.2,1.7,0.2,1.7s-0.9-5.7,4.9-5.7c0,0-4.3-0.9-4.9,0.9
				c-0.1,0.4-0.2,0.8-0.2,1.2c-1.3,0.1-3.6,0.9-5.9,1.9c0.3-0.3,0.5-0.6,0.7-0.9c2.1-2.9,2.9-7.6,3.3-10.1c0,0-1.9,6.4-4.5,9.8
				c-0.7,0.9-1.3,1.7-1.9,2.3c-0.1,0.1-0.3,0.1-0.4,0.2c-2.4,1.1-5.2,3.3-6.5,4.4c-0.2-0.4-0.4-0.7-0.2-1.1c0.1-0.3,0.3-0.6,0.6-0.9
				c1-0.6,2.7-1.9,4.6-3.9c1.9-2,3.2-4.5,3.8-5.7c-0.7,1.2-2.5,3.1-4.4,4.3c-1.8,1.1-2.9,3.2-3.3,3.9c-0.8-0.1-2.3-0.1-2.7,1.8
				c-0.6,2.6,0.6,2.9,0.6,4C92.1,83.8,91.2,85.5,92.3,87.5z"/>
			<path class="st0" d="M111.5,75.8c0,2.2,1.8,4,4,4s4-1.8,4-4c0-2.2-1.8-4-4-4S111.5,73.6,111.5,75.8z"/>
			<path class="st0" d="M124.3,69c2.6,2,4.9,3.1,4.9,3.1s0.6-0.6-1.7-2.9c-2.3-2.3-6.6-4-7.7-4.9c-1.1-0.9-2-4.3-2-4.3
				s-0.9,3.4,0.3,4.9C119.2,66.4,121.7,67,124.3,69z"/>
			<path class="st0" d="M117.2,68.7c0,0-0.9-1.4-1.7-2.9s-1.4-4.6-1.4-4.6C113.5,68.1,117.2,68.7,117.2,68.7z"/>
			<path class="st0" d="M112,68.4c0,0,0.2-1.4,0-2.7c-0.3-1.3-0.3-3.5-0.3-3.5C110.3,67,112,68.4,112,68.4z"/>
			<path class="st0" d="M93.6,91c-0.9,1.5,0.5,4.1,1.3,6.5c0.9,2.4,2,5.1,2.1,4.3c0.1-0.7-3.7-9.7,0.5-7.7c0.3,1.7,0.8,3.5,1.8,5.2
				c1.3,2.3,1,4.9,1.4,4.9c0.2,0.1,3.7-2.8,5.9-3.7c2.1-0.8,1.4-0.9,3.1-1.2c0,0,0,0,0,0l1-6c-0.9,0.4-2,1-2,1s-2.8,0.4-3.8,0.3
				c-0.6-0.1-2.5-1.2-4.1-2.2c1.7-1.2,4.6-2.3,4.6-2.3s-2-0.4-3.3-0.3c-0.8,0.1-2.3,0.7-3.2,1.1c0,0,0,0,0,0
				c-0.8,0.5-0.2-0.1-0.2-0.1l0.3-1.2c1.5-1,4.2-2.5,7.7-1.9c0.6,0.1,1.5,0.2,2.4,0.2c0,0,0,0,0,0s4.2,1.5,13.9-0.3
				c3.5-0.6,6,0.9,7.1,1.9l-0.5,0.9c-0.7-0.3-1.5-0.6-2-0.6c-1.2-0.1-4,0.2-4,0.2s2.9,0.9,4.8,1.9c-0.8,0.7-2.3,2-4,2.6
				c-0.8,0.3-2.7,0-4.6-0.2c-0.1-0.2-0.3-0.5-0.5-0.7c-2.3-2.3-4.1-3.5-4.1-3.5s-0.9,6.9-0.9,8.3s0.9,0.9,1.7,1.1s2.3,1.4,2.3,1.4
				s2.3,0,0.9-1.7c-0.7-0.8-1.3-0.9-1.8-0.8c0.3-0.2,0.6-0.4,1-0.7c0.9,0.2,1.9,0.6,3,1.5c1.5,1.3,3.3,2.5,4.6,3.2
				c1.5,0.8,3.1,1.1,3.1,1.1s0-2.2,0.9-4.3c0.4-1.1,0.8-3.1,1-5.1c0.1,0,0.1-0.1,0.2-0.1c4.6-2.5,0.7,6.8,0.8,7.6s1.2-1.9,2.1-4.3
				c0.9-2.4,2.3-5.1,1.3-6.5s-4.1,1.6-4.1,1.6s-0.1,0.1-0.1,0.2c0-0.3,0.1-0.6,0.1-0.9c0-0.2,0.1-0.4,0.1-0.4s0,0,0,0
				c0.1-1.2,0.2-2.1,0.2-2.7l0.2-0.3c0,0,0.3-2.1-9-4.1c-4.1-0.9-7.7-0.9-10.1-0.7c-1.3,0-3.2,0.2-5.6,0.7c-8,1.6-9.3,3.1-9.5,3.5
				l0,0c0,0-0.4,1.9-0.3,4.4C96.5,91.6,94.3,89.8,93.6,91z M117.3,87c-0.1,0-0.6,0-2.1,0.1c-2.1,0-3.7-1.5-3.7-1.5l4.8-0.4l3.1,0
				L117.3,87z"/>
			<path class="st0" d="M127.2,108.1c3.7,0,5.7-3.1,5.7-3.1s-2,0.3-3.1,0.3c-1.1,0-2.6,0-5.1-1.7c-2.6-1.7-6-1.1-6-1.1
				c0.6,2.9,4.7,6.4,3.5,5s-0.3-3.1-0.3-3.1S123.5,108.1,127.2,108.1z"/>
			<path class="st0" d="M104.4,104.2c-2.1,1.7-2.5,2.1-3.4,2.7c-1.3,0.9-4-0.9-4-0.9s1,2.3,3.9,1.7c2.9-0.6,3-1.6,5-2.7
				c2-1.1,6-2.3,6-2.3S107.2,102.1,104.4,104.2z"/>
			<path class="st0" d="M134,84.4c0.6-2-0.6-3.4-0.6-3.4s-0.3,3.1-1.7,4.6C131.7,85.5,133.4,86.4,134,84.4z"/>
			<path class="st0" d="M130.6,82.7c0.6-2-0.6-3.4-0.6-3.4s-0.3,3.1-1.7,4.6C128.3,83.8,130,84.7,130.6,82.7z"/>
			<path class="st0" d="M126.9,81.3c0.6-2-0.6-3.4-0.6-3.4s-0.3,3.1-1.7,4.6C124.6,82.4,126.3,83.3,126.9,81.3z"/>
			<path class="st0" d="M134,113.8c1.1-2.6-0.3-5.7-0.3-5.7s-4.4,2.6-6.9,2.5c-2.4-0.1-4.9-1.1-6.4-0.2c-2.3,1.5-4.7,1-4.7,1
				c0.1,1.3,1.3,4.1,1.3,5.3c0,14.9,0.2,18.5,1.2,17.7c0.9-0.7,0.7-1.1,3.5-3.2c0.5-2.2,1-5.1,1-8.8c0-4.6-0.9-8-0.9-8
				s2.6,4.3,3.4,10.8c0.1,1.1,0.2,2.2,0.3,3.1c0.9-0.6,1.7-1.3,2.4-1.9c0.1-1.4,0.1-2.9,0-4.5c-0.3-4.1-1.2-7.1-1.2-7.1
				s2.5,3.5,3.6,9.2c0.7-0.8,1.2-1.6,1.6-2.3c-0.1-0.5-0.1-1-0.2-1.5c-0.6-3.4-1.7-5.9-1.7-5.9s1.6,1.8,3,4.9
				C133.7,116.8,133.5,115,134,113.8z"/>
			<path class="st0" d="M108.7,126.2c-0.1,1.1-0.2,2.2-0.3,3.1c0.3,0.2,0.5,0.4,0.8,0.6c1.3,0.9,2.3,1.6,3,2.2c-0.5-2.2-1-5.1-1-8.8
				c0-4.6,0.9-8,0.9-8S109.6,119.6,108.7,126.2z"/>
			<path class="st0" d="M107.4,115.8c0,0-2.5,3.5-3.6,9.2c0.6,0.8,1.4,1.6,2.4,2.5c-0.1-1.4-0.1-2.9,0-4.5
				C106.4,118.8,107.4,115.8,107.4,115.8z"/>
			<path class="st0" d="M102.4,121.1c0.6-3.4,1.7-5.9,1.7-5.9s-1.6,1.8-3,4.9c0.2,0.8,0.5,1.6,1,2.5
				C102.2,122.1,102.3,121.6,102.4,121.1z"/>
			<path class="st0" d="M101.8,68.7c0.2-0.3,0.3-0.5,0.4-0.7C102.3,67.7,102.2,68.1,101.8,68.7z"/>
			<path class="st0" d="M100.2,120.5c0,0-3.9-8-1.1-11.2c0,0-4.1-0.2-2.8,3.8C98.3,119,100.2,120.5,100.2,120.5z"/>
			<path class="st0" d="M114.1,101.9c2.7-0.3-1.4-0.1-1.7-2.7C112.5,99.2,111.3,102.2,114.1,101.9z"/>
			<path class="st0" d="M97.8,86.1c1.1,0.9,1.1-0.6,1.1-0.6s-2,0-1.7-3.4C97.2,82.1,96.6,85.3,97.8,86.1z"/>
			<path class="st0" d="M100.1,81.1c0-0.3,0-0.4,0-0.4C100.1,80.8,100.1,81,100.1,81.1z"/>
			<path class="st0" d="M101.5,84.7c1.1,0-1.1-1.7-1.4-3.6C100.2,82.1,100.6,84.7,101.5,84.7z"/>
			<path class="st0" d="M105.2,83.6c1.3,0.1-1.1-1.8-1.3-3.7C103.9,80.9,104.1,83.5,105.2,83.6z"/>
			<path class="st0" d="M103.9,79.9c0-0.3,0-0.4,0-0.4C103.9,79.6,103.9,79.8,103.9,79.9z"/>
			<path class="st0" d="M135.1,119.5l0,0.1c-0.4-0.1-0.6-0.1-0.6-0.1l1.7,2.8l4,10c0,0-4.6-1.5-9.5,0c-1.3,0.4-3.2,1.5-6.9,6.3
				c-5.4,7.1-6.4,11.4-6.4,11.4s2.7-4.3,7.2-9.7c4.7-5.6,6.2-6.2,7.7-6.5c3.6-0.6,7.9,0.6,10.6,1.6l-1,6.3c-3.1-0.2-6.3,0.4-6.3,0.4
				s9.1,0.6,9.4,2.9c0.3,2.3-2,2.9-2,2.9l-1.1,6.5c-0.3,0-0.4,0-0.4,0s6,1.4,6.8,3.4c0.9,2-1.4,19.4-1.4,19.4s1.1,0.8,1.4-4
				s2-13.7,2-16.5c0-1.9-3.8-2.3-6.4-2.3l0.3-6.2c1.3,0.2,3.2,0,3.2-3.2c0-1.7-1.5-2.6-3.4-3l0.3-6.1c0.9,0.4,1.5,0.6,1.5,0.6
				l-6.8-12.5c1.4,0.4,3.1,0.9,3.9,1.2c3.5,1.4,13.6,6.6,13.6,6.6s-4.2-4.6-9.7-7.7c-5.2-2.9-9.6-4.1-11.3-4.4L135.1,119.5z"/>
			<path class="st0" d="M91.2,122.6c1.7-0.6,5.4-5.4,5.4-5.4l-6.3,3.7c0,0-4-0.3-10.3,2.6c-6.3,2.9-8,7.4-8,7.4s3.1-2.9,7.1-5.1
				C83.2,123.5,89.5,123.2,91.2,122.6z"/>
			<path class="st0" d="M91.7,133.7l-7.4,3.8l9.5-2.4l-0.6,6.5c-3-0.1-6,0.4-6,0.4s9.1,0.6,9.4,2.9c0.1,1.1-0.4,1.9-0.9,2.3h-1.1
				l-1.1,6.4c-1,0.2-1.5,0.4-1.5,0.4l4.3,1.7c0,0,4-0.9,15.4-1.4c11.4-0.6,22.8,0,22.8,0s-8.8-2.6-21.1-2.9
				c-7.7-0.2-14.2,0.9-17.9,1.7l0.2-5.1c1.3,0.2,3.2,0.1,3.2-3.2c0-1.8-1.6-2.7-3.7-3l0.2-6.8c2.4,0.6,10.1,3.5,19.4,14.9
				c0,0-5.4-7.4-10.3-12c-3.5-3.3-7.2-4.8-9.1-5.4l3.4-7.8L91.7,133.7z"/>
			<path class="st0" d="M148.8,134.4c0,0,7.1,1.3,13,6.4s4.7,14.5,4.7,14.5s2-0.5,2.6-4c0.6-3,1.2-4.5,1.4-4.9
				c-0.1,0.3-0.4,1.5,0.4,4.4c1,3.5-0.7,8.4-0.7,8.4s7.8-12.5-0.8-20.5S148.8,134.4,148.8,134.4z"/>
			<path class="st0" d="M165.5,156.6c-1.6,0.8-3.9,4.5-3.9,4.5C165.1,159.8,165.5,156.6,165.5,156.6z"/>
			<path class="st0" d="M181.1,174c0.3-2.9-1.4-4-1.4-4s1.1-2.9-2.3-6c-0.8-0.8-1.9-1.3-3-1.6c0.7-0.3,1.4-1.1,1.8-2.8
				c1.2-5-2.2-11.2-2.2-11.2c3.5,10-2.3,13.4-2.3,13.4s0.1,0.1,0.2,0.2c-2.8-0.3-5.3,0.1-5.3,0.1s8.6,1.1,9.7,4.3
				c1.4,3.8-4,2.6-4,2.6s5.7,1.7,6.3,4.6c0.2,0.8-1.1,1.5-2.1,1.9c-3.4-2.2-8.7-4-15.6-2.7c0,0,8.3,0.6,13.7,4.6
				c4.4,3.3,4.6,7.7,4.6,7.7s3.1-2.3,1.4-5.4c-0.3-0.5-0.7-1.1-1.3-1.7C179.9,177,180.9,175.8,181.1,174z"/>
			<path class="st0" d="M54.7,146c0,0,4-8.8,11.4-9.1s11.8,2.3,11.8,2.3s0.5-1.7-3.3-2.6c-3.7-0.9-1.4-3.4-1.4-3.4
				s-9.4-1.4-14.8,5.4S54.7,146,54.7,146z"/>
			<path class="st0" d="M131.4,182.9c-0.2-0.1-0.5-0.2-0.9-0.4C130.9,182.7,131.3,182.8,131.4,182.9c-0.1,0-0.2,0.1-0.2,0.1
				S131.3,182.9,131.4,182.9c0.1,0,0.2,0.1,0.2,0.1S131.5,182.9,131.4,182.9C131.5,182.9,131.5,182.9,131.4,182.9
				C131.5,182.9,131.5,182.9,131.4,182.9z"/>
			<path class="st0" d="M140.3,177.3c2.9-3.6,4.5-16.8,4.5-16.8s-3.2-0.1-6.7-1.1c-2.9-0.8-5.9-2.2-5.9-2.2l0.2,7l2.4-4.3l-0.7-0.7
				c0.9,0.8,2,1.6,3.4,2.2c3.2,1.4,4.3,2.2,4.3,2.2s0.5,7.3-2.9,12.3c-3.6,5.2-6.6,6.6-7.4,7C132.7,182.4,137.7,180.5,140.3,177.3z"
				/>
			<path class="st0" d="M123.3,175.9c-3.4-5-3.5-13.5-3.5-13.5s2.3-0.2,5.5-1.6c3.2-1.4,5.3-3.6,5.3-3.6s-2.9,1.4-5.9,2.2
				c-3.5,1-6.7,1.1-6.7,1.1s1.6,13.1,4.5,16.8c2.2,2.7,6.1,4.5,7.9,5.3C129,181.8,126.2,180.1,123.3,175.9z"/>
			<path class="st0" d="M52.4,172.3c0,0-2.3-2-1.1-3.7s4.6-4.9,4.6-4.9s-5.1,2.3-5.7,4.6s0,4,0,4s-2.6,2-1.7,4.3
				c0.9,2.3,4,1.1,4,1.1s-2.6-1.1-2.6-2.6S52.4,172.3,52.4,172.3z"/>
			<path class="st0" d="M58.4,192.8c0,0-2.2-6-2.6-8.3c-0.6-3.1,0.6-5.4,0.6-5.4l-3.7,1.7c0,0,0.4,4.6,1.7,7.1
				C56.4,191.7,58.4,192.8,58.4,192.8z"/>
			<path class="st0" d="M91.2,209.9c-10.6-0.3-23.1-1.5-23.1-1.5l-5.4,0.5c0,0-4.4-8.4-5.4-11.8c-0.3-1.1-0.2,2.8,0.3,4.6
				c1,4.4,3.7,9.7,3.7,9.7l6.6-1.2l6.6,1.4c0,0,8.3,1.1,18,0.5c9.7-0.5,28-6.1,28-6.1S101.8,210.2,91.2,209.9z"/>
			<path class="st0" d="M67.2,204.8c3.1,0.9,3.7-0.9,3.7-0.9s-2.9,0.6-5.1-2c-2.3-2.6-3.7-5.4-3.7-5.4S61.1,203.1,67.2,204.8z"/>
			<path class="st0" d="M80.4,190.3c0,0,2.3,1.8,6.6,2.6c4.6,0.9,11.1,0.9,11.1,0.9s-2.6-0.9-7.7-2.3
				C85.2,190,80.4,190.3,80.4,190.3z"/>
			<path class="st0" d="M103.5,203.4c-1.4,0-25.4,2-25.4,2C90.4,207.9,104.9,203.4,103.5,203.4z"/>
			<path class="st0" d="M72.4,161.2c6-0.9,7.1,2.6,7.1,2.6s2.6,0,2.3-2s-4.3-2.6-8.6-2.6c-4.3,0-12.8,2.6-12.8,2.6
				S66.4,162,72.4,161.2z"/>
			<path class="st0" d="M72.4,172.9c0,0,2.3,0.6,4.5,1c0,0,0,0,0.1,0c2.9,1.1,3.1,15.8,3.1,15.8s1.4-3.7,1.1-7.7
				c-0.2-2.8-1-6.3-1.4-8.1c2-0.6,3-3.5,2.2-6.7c-0.9-3.7-13.7-0.3-13.7-0.3s11.4,0.9,11.7,3.4C80.4,172.9,72.4,172.9,72.4,172.9z"
				/>
			<path class="st0" d="M72.4,155.4c2.7,2.6,6.3,2.9,6.3,2.9s-1.4-1.1-5.1-4c-3.7-2.9-2.6-6.8-2.6-6.8S67.9,151.1,72.4,155.4z"/>
			<path class="st0" d="M78.7,157.5l-1.8-8.8c0,0-2,3.1-0.7,5.4C77.5,156.3,78.7,157.5,78.7,157.5z"/>
			<path class="st0" d="M54.3,161.7c0,0-5.8-1.6-2.3-11.6c0,0-2.8,4.6-1.6,9.5C51.6,164.6,54.3,161.7,54.3,161.7z"/>
			<path class="st0" d="M160.8,192c-2.6-5.1-16.8-7.4-16.8-7.4l-12,2.9c0,0-28.5-6-31.7-6.3c-3.1-0.3-11.4,6-11.4,6
				s8.6-4.6,11.4-4.6c2.9,0,31.4,7.7,31.4,7.7s7.1-0.9,13.7-1.7S161.1,192.5,160.8,192z"/>
			<path class="st0" d="M110.6,197.7c0,0,10.8,6.6,21.4,11.1c6.4,2.8,13.7,4.2,18.5,4.8c-0.6,0.3-3.6,1.8-3.9,3.8
				c-0.3,2.2,1.1,5.3,1.4,2.6c0.3-2.5,2.3-5.9,2.5-6.4c3.1,0.4,5.1,0.6,5.1,0.6S119.7,203.4,110.6,197.7z"/>
			<path class="st0" d="M151,185.4c1.5,1.7-0.5-5.9,1.1-10.9C152.1,174.5,146.9,180.8,151,185.4z"/>
			<path class="st0" d="M174.9,181.4c-2-2.1-3.1-1.1-3.1-1.1s1.3,3.4,0.5,6.2c-1.5,4.9-5.3,7-5.3,7s2.5-0.2,7-3.7
				c0.5-0.4,0.8-0.7,1.2-1.1c-0.6,2.6-2,6.8-4.2,10.7c-2.8,5.1-6.7,9.7-6.7,9.7s4.9-0.8,9.1-9.7c2.7-5.5,2.5-9.5,2.2-11.4
				C177.7,185,175.7,182.2,174.9,181.4z"/>
			<path class="st0" d="M106.8,133.9c2,1.7,6.4,4.9,6.4,3.1s-7.5-5.7-9.5-9.4C103.6,127.6,104.8,132.2,106.8,133.9z"/>
			<path class="st0" d="M158,208.8c-2.3-0.6-3.4-3.4-6.3-4c-2.9-0.6-31.2-9.1-42.2-14.8c0,0,20.3,11.1,27.1,13.4
				c6.8,2.3,14.3,4.9,14.3,4.9l3.4,3.1c0,0,5.4,1.7,7.4-0.9c2-2.6,4.3-10.6,4.3-10.6S160.3,209.4,158,208.8z"/>
			<path class="st0" d="M143.1,193.8c0,0,10.6,4.1,15.4,3.2c0,0-2.9-3-7.7-3.7C146,192.7,143.1,193.8,143.1,193.8z"/>
			<path class="st0" d="M81,157.3c0,1.1,2.7,0.8,2.7,0.8s2.3,0.8,3-2.3c0.6-2.3,0-6.8,0-6.8l-2.1,6.8C84.6,155.7,81,156.1,81,157.3z
				"/>
			<path class="st0" d="M116,108.5c2.2-0.2,3.6,1,3.4-1.9c0-0.5-2-0.4-3.9-0.2c-0.7,0.1-1.4,0-2,0c-0.3,0.5-0.7,1-1.4,1.3
				C112.7,109.4,115,108.6,116,108.5z"/>
			<path class="st0" d="M108.7,106.3c-2.1,0.9-4.8,2.1-4.8,2.1s5.5,0.3,7.4-0.9c2-1.1,1-4.3,1-4.3S111.6,105,108.7,106.3z"/>
			<path class="st0" d="M81,213.6c0,0,0.6,1.9,1.4,4.6c0.9,2.6,1.1,4.3,1.1,4.3s0.9-2.2,0.3-4.6C83.3,215.5,81,213.6,81,213.6z"/>
			<path class="st0" d="M109.8,99.4L109.8,99.4C109.8,99.4,109.8,99.4,109.8,99.4z"/>
			<path class="st0" d="M109.7,99.5L109.7,99.5C109.7,99.5,109.7,99.6,109.7,99.5z"/>
			<path class="st0" d="M123.5,173.7h1.7l0.3-1.7h1.2l0.3,1.7h1.7l-1.5-8.1h-2L123.5,173.7z M126,167.7l0.4,3.2h-0.9L126,167.7z"/>
			<path class="st0" d="M131.4,166.8c0.2,0,0.3,0,0.3,0.1c0.1,0.1,0.1,0.2,0.1,0.4c0,0.2,0,0.4,0,0.6l1.5-0.2c0-0.2,0-0.5-0.1-0.8
				c0-0.3-0.1-0.5-0.3-0.8c-0.1-0.2-0.3-0.4-0.6-0.6c-0.3-0.1-0.6-0.2-1-0.2c-0.7,0-1.3,0.2-1.7,0.5c-0.4,0.4-0.6,0.9-0.6,1.6
				c0,0.5,0.1,0.9,0.3,1.2c0.2,0.3,0.5,0.6,0.8,0.9l0.7,0.6c0.3,0.2,0.5,0.5,0.7,0.7c0.2,0.2,0.2,0.5,0.2,0.8c0,0.1,0,0.3-0.1,0.4
				c-0.1,0.1-0.2,0.2-0.4,0.2c-0.1,0-0.3,0-0.4-0.1c-0.1-0.1-0.2-0.2-0.2-0.5s-0.1-0.5-0.1-0.8l-1.5,0.2c0,0.6,0.1,1.1,0.3,1.5
				s0.4,0.7,0.8,0.8c0.3,0.2,0.8,0.3,1.3,0.3c0.4,0,0.8-0.1,1.1-0.3s0.6-0.4,0.7-0.7c0.2-0.3,0.3-0.7,0.3-1c0-0.6-0.1-1-0.4-1.4
				s-0.5-0.7-0.9-1l-0.7-0.6c-0.2-0.2-0.4-0.4-0.6-0.6s-0.2-0.4-0.2-0.7c0-0.1,0-0.3,0.1-0.4S131.3,166.8,131.4,166.8z"/>
			<path class="st0" d="M139.2,168.5v-0.7c0-0.5-0.1-0.9-0.2-1.2s-0.4-0.6-0.7-0.8s-0.8-0.3-1.4-0.3c-0.6,0-1.1,0.1-1.5,0.3
				s-0.6,0.5-0.8,0.9c-0.1,0.4-0.2,0.9-0.2,1.5v2.9c0,0.5,0.1,1,0.2,1.4c0.1,0.4,0.4,0.7,0.8,0.9c0.4,0.2,0.8,0.3,1.5,0.3
				c0.6,0,1.1-0.1,1.4-0.3c0.3-0.2,0.6-0.5,0.7-0.9c0.1-0.4,0.2-0.8,0.2-1.2v-0.7h-1.8v0.9c0,0.2,0,0.3,0,0.5c0,0.2-0.1,0.3-0.2,0.4
				c-0.1,0.1-0.2,0.1-0.4,0.1c-0.2,0-0.3,0-0.4-0.1c-0.1-0.1-0.2-0.2-0.2-0.4s0-0.3,0-0.5v-3.8c0-0.2,0-0.3,0-0.5s0.1-0.3,0.2-0.4
				c0.1-0.1,0.2-0.2,0.4-0.2c0.2,0,0.3,0,0.4,0.1s0.1,0.2,0.1,0.4s0,0.3,0,0.5v0.8H139.2z"/>
		</g>
	</g>
</g>
<g id="Слой_2" class="st1">
	<rect x="14.3" y="-199.7" class="st2" width="104.7" height="231.7"/>
</g>
</svg>
