<svg width="206.504" height="311.504" xmlns="http://www.w3.org/2000/svg" xml:space="preserve" enable-background="new 0 0 368.504 368.504" version="1.1">

 <g>
  <title>Layer 1</title>
  <g id="svg_1">
   <path id="svg_2" d="m103.733,1c-63.957,0 -101.446,29.274 -101.677,36.048c-0.126,3.701 0,169.841 0,169.841c1.9,8.961 10.058,32.77 38.217,59.996c29.945,29.001 54.304,39.021 61.009,41.374l1.906,0.689l0,0.196l0.273,-0.099l0.271,0.099l0,-0.196l1.906,-0.689c6.705,-2.354 31.063,-12.373 61.009,-41.374c28.159,-27.227 36.316,-51.035 38.217,-59.996c0,0 0,-166.377 0,-169.841c0.001,-6.777 -37.174,-36.048 -101.131,-36.048z" fill="#1D1D1B"/>
   <g id="svg_3">
    <path id="svg_4" d="m42.471,194.424c0,0 -2.283,-1.997 -1.142,-3.709s4.565,-4.851 4.565,-4.851s-5.137,2.282 -5.707,4.565c-0.57,2.282 0,3.994 0,3.994s-2.568,1.997 -1.712,4.28c0.856,2.282 3.995,1.142 3.995,1.142s-2.568,-1.142 -2.568,-2.568s2.569,-2.853 2.569,-2.853z" fill="#FFFFFF"/>
    <path id="svg_5" d="m44.365,183.889c0,0 -5.771,-1.604 -2.307,-11.642c0,0 -2.81,4.558 -1.601,9.517s3.908,2.125 3.908,2.125z" fill="#FFFFFF"/>
    <g id="svg_6">
     <path id="svg_7" d="m103.392,297.985l-0.217,-0.111c-6.176,-2.09 -28.34,-10.807 -56.235,-36.385c-26.243,-24.037 -32.418,-44.658 -33.742,-50.389c-1.545,-7.059 -1.214,-99.57 -1.104,-123.938l1.654,0c-0.221,36.057 -0.331,117.32 0.994,123.607c1.213,5.619 7.385,25.799 33.191,49.506c27.343,25.143 49.065,33.742 55.458,35.949c6.398,-2.207 28.01,-10.916 55.465,-35.949c25.803,-23.707 31.979,-43.887 33.193,-49.506c1.43,-6.287 1.32,-87.44 0.988,-123.607l1.656,0c0.219,24.367 0.547,116.879 -1.104,123.938c-1.324,5.73 -7.5,26.352 -33.74,50.389c-28.01,25.689 -50.17,34.404 -56.238,36.385l-0.219,0.111z" fill="#FFFFFF"/>
    </g>
    <path id="svg_8" d="m109.317,69.079l2.531,7.277c0,0 5.957,2.866 9.486,6.285c1.982,1.985 2.973,4.852 3.414,6.946c-3.414,-1.214 -7.605,-2.425 -10.586,-2.314c-0.217,-0.441 -0.328,-0.883 -0.658,-1.104c-1.877,-1.543 -4.74,-0.993 -4.74,-0.993s3.195,0.331 3.416,2.867c0.221,2.535 0.662,6.617 -1.211,7.498c-1.873,0.883 -8.822,1.213 -8.822,1.213s8.492,2.206 11.025,-0.33c0.773,-0.773 1.32,-3.419 1.434,-5.956c1.766,0.11 8.49,0.883 16.322,4.963c-0.883,1.765 -2.869,2.427 -1.986,3.859c0.994,1.544 2.207,0.662 -0.33,4.74c0,0 2.205,0.332 2.867,-1.543c0.66,-1.875 -1.543,-3.197 -0.33,-4.411c1.209,-1.211 3.195,-3.196 1.873,-4.409c-0.553,-0.552 -1.215,-0.881 -1.652,-1.213c-0.111,-0.222 -0.221,-0.441 -0.221,-0.441s-0.441,-0.222 -1.324,-0.552c-0.883,-1.984 -4.746,-8.82 -6.176,-10.806c-2.207,-2.867 -4.189,-4.3 -5.734,-5.072c-2.096,-0.991 -3.422,-2.977 -3.859,-5.294c-0.33,-1.872 -1.104,-3.857 -2.428,-4.409c-2.863,-1.214 -18.19,7.498 -18.19,7.498l-1.214,6.285l2.535,-5.954l14.558,-4.63z" fill="#FFFFFF"/>
    <path id="svg_9" d="m79.765,103.921c1.211,2.206 3.417,1.215 3.417,1.215s-2.864,-1.545 -2.864,-3.198c0,-1.654 0.989,-2.536 0.989,-4.079c0,-0.44 -0.11,-0.771 -0.221,-1.104c1.323,-0.993 3.969,-2.535 7.499,-4.078c3.308,-1.325 8.378,-2.318 8.931,-2.979c0.11,0.992 0.221,1.874 0.221,1.874s-0.993,-6.285 5.403,-6.285c0,0 -4.741,-0.991 -5.403,0.993c-0.11,0.441 -0.221,0.883 -0.221,1.323c-1.435,0.11 -3.969,0.992 -6.506,2.095c0.331,-0.331 0.552,-0.662 0.772,-0.992c2.313,-3.198 3.196,-8.381 3.637,-11.137c0,0 -2.093,7.058 -4.958,10.805c-0.772,0.993 -1.435,1.874 -2.097,2.536c-0.109,0.11 -0.33,0.11 -0.441,0.221c-2.647,1.213 -5.734,3.64 -7.168,4.852c-0.217,-0.44 -0.438,-0.772 -0.217,-1.212c0.107,-0.331 0.327,-0.661 0.658,-0.993c1.104,-0.661 2.975,-2.095 5.072,-4.3c2.096,-2.204 3.53,-4.962 4.192,-6.285c-0.772,1.323 -2.759,3.419 -4.854,4.74c-1.986,1.214 -3.197,3.529 -3.639,4.301c-0.882,-0.109 -2.533,-0.109 -2.975,1.986c-0.662,2.867 0.662,3.198 0.662,4.409c-0.219,1.213 -1.102,3.087 0.111,5.292z" fill="#FFFFFF"/>
    <path id="svg_10" d="m100.936,91.02c0,2.427 1.984,4.411 4.408,4.411c2.428,0 4.414,-1.984 4.414,-4.411c0,-2.425 -1.986,-4.409 -4.414,-4.409c-2.424,0 -4.408,1.984 -4.408,4.409z" fill="#FFFFFF"/>
    <path id="svg_11" d="m115.047,83.522c2.867,2.206 5.404,3.419 5.404,3.419s0.662,-0.661 -1.875,-3.197s-7.279,-4.411 -8.49,-5.404c-1.211,-0.991 -2.205,-4.74 -2.205,-4.74s-0.992,3.749 0.332,5.402c1.104,1.654 3.967,2.316 6.834,4.52z" fill="#FFFFFF"/>
    <path id="svg_12" d="m107.11,83.192c0,0 -0.994,-1.544 -1.877,-3.199c-0.882,-1.653 -1.541,-5.071 -1.541,-5.071c-0.662,7.61 3.418,8.27 3.418,8.27z" fill="#FFFFFF"/>
    <path id="svg_13" d="m101.485,82.861c0,0 0.221,-1.543 0,-2.976c-0.331,-1.435 -0.331,-3.86 -0.331,-3.86c-1.541,5.293 0.331,6.836 0.331,6.836z" fill="#FFFFFF"/>
    <path id="svg_14" d="m81.086,107.782c-0.989,1.653 0.552,4.521 1.435,7.167c0.989,2.646 2.203,5.623 2.313,4.74c0.11,-0.771 -4.079,-10.695 0.552,-8.489c0.331,1.875 0.883,3.859 1.986,5.733c1.434,2.536 1.104,5.403 1.544,5.403c0.221,0.109 4.08,-3.088 6.503,-4.08c2.317,-0.883 1.544,-0.993 3.421,-1.323l0,0l1.104,-6.614c-0.992,0.438 -2.207,1.101 -2.207,1.101s-3.089,0.441 -4.189,0.332c-0.662,-0.111 -2.758,-1.323 -4.521,-2.427c1.873,-1.323 5.069,-2.536 5.069,-2.536s-2.203,-0.44 -3.635,-0.331c-0.884,0.11 -2.538,0.772 -3.53,1.214l0,0c-0.883,0.552 -0.221,-0.11 -0.221,-0.11l0.33,-1.324c1.655,-1.102 4.632,-2.758 8.489,-2.095c0.662,0.11 1.655,0.221 2.648,0.221l0,0c0,0 4.631,1.653 15.326,-0.332c3.859,-0.662 6.617,0.994 7.83,2.096l-0.551,0.993c-0.771,-0.331 -1.654,-0.662 -2.207,-0.662c-1.324,-0.109 -4.414,0.221 -4.414,0.221s3.201,0.993 5.297,2.096c-0.883,0.771 -2.537,2.204 -4.412,2.866c-0.885,0.331 -2.979,0 -5.07,-0.221c-0.111,-0.22 -0.33,-0.552 -0.551,-0.771c-2.537,-2.535 -4.523,-3.859 -4.523,-3.859s-0.994,7.608 -0.994,9.151c0,1.545 0.994,0.993 1.877,1.213c0.883,0.221 2.537,1.544 2.537,1.544s2.537,0 0.994,-1.875c-0.773,-0.882 -1.436,-0.992 -1.986,-0.882c0.33,-0.222 0.662,-0.439 1.104,-0.771c0.992,0.221 2.094,0.661 3.305,1.653c1.654,1.435 3.639,2.757 5.072,3.53c1.656,0.881 3.422,1.212 3.422,1.212s0,-2.426 0.992,-4.742c0.438,-1.214 0.879,-3.418 1.1,-5.622c0.109,0 0.109,-0.11 0.221,-0.11c5.072,-2.758 0.771,7.497 0.883,8.38c0.109,0.883 1.32,-2.096 2.313,-4.742c0.994,-2.646 2.539,-5.622 1.436,-7.166c-1.104,-1.545 -4.521,1.764 -4.521,1.764s-0.109,0.11 -0.109,0.221c0,-0.33 0.109,-0.662 0.109,-0.993c0,-0.221 0.111,-0.439 0.111,-0.439l0,0c0.109,-1.324 0.221,-2.316 0.221,-2.978l0.221,-0.331c0,0 0.33,-2.316 -9.924,-4.521c-4.52,-0.993 -8.492,-0.993 -11.137,-0.771c-1.432,0 -3.527,0.22 -6.176,0.771c-8.819,1.763 -10.254,3.417 -10.474,3.858l0,0c0,0 -0.442,2.095 -0.332,4.852c-0.884,-0.555 -3.199,-2.539 -4.081,-1.215zm26.244,-4.413c-0.111,0 -0.662,0 -2.318,0.11c-2.313,0 -4.076,-1.652 -4.076,-1.652l5.291,-0.441l3.42,0l-2.317,1.983z" fill="#FFFFFF"/>
    <path id="svg_15" d="m118.135,126.636c4.08,0 6.283,-3.417 6.283,-3.417s-2.203,0.33 -3.414,0.33c-1.215,0 -2.869,0 -5.627,-1.875c-2.867,-1.874 -6.613,-1.212 -6.613,-1.212c0.662,3.196 5.182,7.056 3.857,5.512s-0.332,-3.417 -0.332,-3.417s1.762,4.079 5.846,4.079z" fill="#FFFFFF"/>
    <path id="svg_16" d="m93.106,122.337c-2.316,1.874 -2.754,2.315 -3.748,2.978c-1.435,0.99 -4.413,-0.993 -4.413,-0.993s1.104,2.535 4.303,1.874c3.196,-0.661 3.308,-1.765 5.511,-2.976c2.205,-1.214 6.616,-2.538 6.616,-2.538s-5.294,-0.662 -8.269,1.655z" fill="#FFFFFF"/>
    <path id="svg_17" d="m125.741,100.503c0.662,-2.204 -0.662,-3.748 -0.662,-3.748s-0.33,3.419 -1.871,5.072c-0.001,-0.111 1.87,0.883 2.533,-1.324z" fill="#FFFFFF"/>
    <path id="svg_18" d="m121.994,98.629c0.66,-2.204 -0.66,-3.748 -0.66,-3.748s-0.33,3.418 -1.875,5.072c0,-0.111 1.875,0.882 2.535,-1.324z" fill="#FFFFFF"/>
    <path id="svg_19" d="m117.805,97.087c0.662,-2.206 -0.662,-3.751 -0.662,-3.751s-0.332,3.419 -1.875,5.073c0.109,-0.111 1.984,0.882 2.537,-1.322z" fill="#FFFFFF"/>
    <path id="svg_20" d="m125.741,132.922c1.215,-2.867 -0.33,-6.285 -0.33,-6.285s-4.848,2.866 -7.605,2.756c-2.648,-0.11 -5.404,-1.212 -7.057,-0.22c-2.535,1.654 -5.184,1.103 -5.184,1.103c0.109,1.433 1.434,4.521 1.434,5.843c0,16.43 0.221,20.399 1.324,19.519c0.994,-0.772 0.773,-1.213 3.857,-3.53c0.551,-2.424 1.104,-5.622 1.104,-9.703c0,-5.071 -0.994,-8.819 -0.994,-8.819s2.867,4.741 3.75,11.908c0.111,1.213 0.221,2.426 0.332,3.419c0.992,-0.661 1.875,-1.435 2.646,-2.097c0.111,-1.544 0.111,-3.196 0,-4.963c-0.33,-4.52 -1.324,-7.827 -1.324,-7.827s2.758,3.859 3.969,10.144c0.771,-0.881 1.324,-1.765 1.766,-2.536c-0.111,-0.552 -0.111,-1.102 -0.221,-1.653c-0.662,-3.749 -1.873,-6.505 -1.873,-6.505s1.762,1.985 3.303,5.402c0.772,-2.649 0.44,-4.633 1.103,-5.956z" fill="#FFFFFF"/>
    <path id="svg_21" d="m97.848,146.594c-0.111,1.213 -0.222,2.426 -0.332,3.418c0.332,0.221 0.553,0.441 0.883,0.661c1.436,0.992 2.537,1.765 3.307,2.426c-0.552,-2.426 -1.1,-5.623 -1.1,-9.701c0,-5.073 0.989,-8.822 0.989,-8.822s-2.755,4.74 -3.747,12.018z" fill="#FFFFFF"/>
    <path id="svg_22" d="m96.302,135.127c0,0 -2.755,3.858 -3.968,10.144c0.662,0.881 1.541,1.766 2.645,2.758c-0.111,-1.544 -0.111,-3.198 0,-4.962c0.33,-4.632 1.323,-7.94 1.323,-7.94z" fill="#FFFFFF"/>
    <path id="svg_23" d="m90.9,140.97c0.662,-3.749 1.876,-6.505 1.876,-6.505s-1.766,1.984 -3.308,5.402c0.221,0.883 0.552,1.764 1.104,2.757c0.111,-0.551 0.217,-1.103 0.328,-1.654z" fill="#FFFFFF"/>
    <path id="svg_24" d="m90.241,83.192c0.221,-0.331 0.332,-0.551 0.442,-0.771c0.106,-0.332 -0.11,0.111 -0.442,0.771z" fill="#FFFFFF"/>
    <path id="svg_25" d="m88.476,140.309c0,0 -4.305,-8.821 -1.214,-12.35c0,0 -4.521,-0.22 -3.091,4.19c2.208,6.507 4.305,8.16 4.305,8.16z" fill="#FFFFFF"/>
    <path id="svg_26" d="m103.803,119.8c2.975,-0.331 -1.546,-0.111 -1.877,-2.979c0,0.001 -1.32,3.31 1.877,2.979z" fill="#FFFFFF"/>
    <path id="svg_27" d="m85.717,102.379c1.214,0.99 1.214,-0.662 1.214,-0.662s-2.207,0 -1.876,-3.748c0.11,-0.001 -0.552,3.528 0.662,4.41z" fill="#FFFFFF"/>
    <path id="svg_28" d="m88.365,96.866c0,-0.331 0,-0.441 0,-0.441c-0.11,0.11 -0.11,0.33 0,0.441z" fill="#FFFFFF"/>
    <path id="svg_29" d="m89.799,100.835c1.211,0 -1.214,-1.874 -1.544,-3.969c0.221,1.102 0.551,3.969 1.544,3.969z" fill="#FFFFFF"/>
    <path id="svg_30" d="m93.985,99.622c1.435,0.11 -1.209,-1.983 -1.43,-4.08c0,1.103 0.221,3.97 1.43,4.08z" fill="#FFFFFF"/>
    <path id="svg_31" d="m92.555,95.542c0,-0.332 0,-0.44 0,-0.44c-0.111,0.108 -0.111,0.329 0,0.44z" fill="#FFFFFF"/>
    <path id="svg_32" d="m126.955,139.206l0,0.11c-0.441,-0.11 -0.662,-0.11 -0.662,-0.11l1.877,3.088l4.408,11.026c0,0 -5.072,-1.654 -10.475,0c-1.432,0.441 -3.527,1.654 -7.611,6.947c-5.949,7.829 -7.053,12.57 -7.053,12.57s2.979,-4.741 7.938,-10.696c5.186,-6.174 6.838,-6.836 8.492,-7.167c3.969,-0.662 4.17,0.662 7.146,1.764l0.031,6.948c-3.412,-0.221 -3.541,0.44 -3.541,0.44s10.035,0.659 10.365,3.198c0.332,2.537 -2.207,3.198 -2.207,3.198l-1.213,7.165c-0.328,0 -0.438,0 -0.438,0s6.617,1.545 7.5,3.752c0.988,2.203 -1.547,14.58 -1.547,14.58s1.215,0.883 1.547,-4.41c0.328,-5.293 2.203,-8.297 2.203,-11.383c0,-2.098 -4.191,-2.539 -7.059,-2.539l0.33,-6.834c1.434,0.221 3.531,0 3.531,-3.529c0,-1.877 -1.656,-2.867 -3.752,-3.309l0.332,-6.727c0.992,0.441 1.654,0.661 1.654,0.661l-7.496,-13.783c1.541,0.441 3.414,0.993 4.297,1.324c3.861,1.544 14.998,7.276 14.998,7.276s-4.633,-5.07 -10.695,-8.489c-5.734,-3.199 -10.584,-4.521 -12.461,-4.852l-0.439,-0.219z" fill="#FFFFFF"/>
    <path id="svg_33" d="m78.552,142.625c1.875,-0.662 5.951,-5.955 5.951,-5.955l-6.943,4.081c0,0 -4.411,-0.332 -11.358,2.867c-6.945,3.196 -8.821,8.158 -8.821,8.158s3.417,-3.196 7.828,-5.625c4.522,-2.533 11.467,-2.864 13.343,-3.526z" fill="#FFFFFF"/>
    <path id="svg_34" d="m79.104,154.864l-8.162,4.19l6.504,-2.648l-0.095,7.169c-3.307,-0.109 -3.212,0.441 -3.212,0.441s10.032,0.658 10.364,3.197c0.109,1.215 -0.441,2.096 -0.993,2.537l-1.21,0l-1.214,7.055c-1.101,0.221 -1.651,0.441 -1.651,0.441l4.736,1.877c0,0 4.414,-0.994 16.982,-1.545c12.571,-0.662 25.14,0 25.14,0s-9.703,-2.869 -23.264,-3.197c-8.492,-0.221 -15.657,0.99 -19.737,1.873l0.218,-5.621c1.435,0.221 3.53,0.109 3.53,-3.53c0,-1.987 -1.765,-2.977 -4.079,-3.307l0.221,-7.498c2.646,0.659 11.135,3.858 21.39,16.429c0,0 -5.952,-8.162 -11.355,-13.233c-3.858,-3.637 -7.94,-5.293 -10.034,-5.952l3.749,-8.602l-7.828,9.924z" fill="#FFFFFF"/>
    <path id="svg_35" d="m142.063,155.636c0,0 7.828,1.433 14.332,7.057c6.506,5.624 5.186,15.989 5.186,15.989s2.203,-0.553 2.865,-4.41c0.66,-3.307 1.322,-4.963 1.543,-5.404c-0.109,0.332 -0.441,1.655 0.441,4.852c1.104,3.859 -0.773,9.262 -0.773,9.262s8.604,-13.781 -0.881,-22.604c-9.485,-8.824 -22.713,-4.742 -22.713,-4.742z" fill="#FFFFFF"/>
    <path id="svg_36" d="m160.477,180.116c-1.764,0.883 -4.301,4.959 -4.301,4.959c3.75,-1.432 4.301,-4.959 4.301,-4.959z" fill="#FFFFFF"/>
    <path id="svg_37" d="m177.676,199.301c0.332,-3.199 -1.545,-4.41 -1.545,-4.41s1.213,-3.197 -2.533,-6.617c-0.883,-0.883 -2.094,-1.434 -3.307,-1.766c0.771,-0.33 1.545,-1.213 1.984,-3.086c1.322,-5.514 -2.426,-12.348 -2.426,-12.348c3.857,11.025 -2.537,14.773 -2.537,14.773s0.109,0.109 0.221,0.219c-3.088,-0.33 -5.842,0.111 -5.842,0.111s9.482,1.213 10.691,4.744c1.545,4.186 -4.408,2.865 -4.408,2.865s6.285,1.871 6.945,5.072c0.219,0.883 -1.213,1.654 -2.316,2.096c-3.746,-2.426 -9.592,-4.412 -17.201,-2.979c0,0 9.154,0.662 15.109,5.072c4.848,3.639 5.066,8.494 5.066,8.494s3.424,-2.539 1.545,-5.959c-0.33,-0.549 -0.771,-1.211 -1.434,-1.873c0.664,-1.101 1.767,-2.421 1.988,-4.408z" fill="#FFFFFF"/>
    <path id="svg_38" d="m38.305,168.428c0,0 4.408,-9.705 12.569,-10.035c8.161,-0.332 13.009,2.535 13.009,2.535s0.553,-1.874 -3.637,-2.867c-4.079,-0.992 -1.542,-3.749 -1.542,-3.749s-10.365,-1.544 -16.319,5.955c-5.955,7.497 -4.08,8.161 -4.08,8.161z" fill="#FFFFFF"/>
    <path id="svg_39" d="m35.768,197.424c0,0 -2.538,-2.205 -1.213,-4.078c1.323,-1.873 5.074,-5.402 5.074,-5.402s-5.627,2.537 -6.289,5.072c-0.662,2.533 0,4.408 0,4.408s-2.865,2.209 -1.872,4.746c0.993,2.533 4.41,1.209 4.41,1.209s-2.869,-1.209 -2.869,-2.865c0,-1.654 2.759,-3.09 2.759,-3.09z" fill="#FFFFFF"/>
    <path id="svg_40" d="m42.385,220.032c0,0 -2.428,-6.617 -2.865,-9.152c-0.662,-3.42 0.658,-5.955 0.658,-5.955l-4.079,1.873c0,0 0.441,5.076 1.876,7.83c2.203,4.189 4.41,5.404 4.41,5.404z" fill="#FFFFFF"/>
    <path id="svg_41" d="m78.552,238.885c-11.689,-0.33 -25.475,-1.654 -25.475,-1.654l-5.952,0.551c0,0 -4.851,-9.262 -5.954,-13.01c-0.331,-1.213 -0.221,3.086 0.331,5.072c1.104,4.852 4.078,10.695 4.078,10.695l7.28,-1.324l7.278,1.545c0,0 9.15,1.215 19.847,0.553c10.697,-0.553 30.874,-6.729 30.874,-6.729s-20.729,4.631 -32.307,4.301z" fill="#FFFFFF"/>
    <path id="svg_42" d="m52.087,233.26c3.418,0.994 4.08,-0.988 4.08,-0.988s-3.199,0.658 -5.625,-2.207c-2.534,-2.869 -4.079,-5.955 -4.079,-5.955s-1.102,7.279 5.624,9.15z" fill="#FFFFFF"/>
    <path id="svg_43" d="m66.532,217.272c0,0 2.538,1.986 7.275,2.869c5.075,0.994 12.241,0.994 12.241,0.994s-2.866,-0.994 -8.488,-2.539c-5.626,-1.654 -11.028,-1.324 -11.028,-1.324z" fill="#FFFFFF"/>
    <path id="svg_44" d="m92.002,231.719c-1.541,0 -28.009,2.203 -28.009,2.203c13.567,2.756 29.662,-2.203 28.009,-2.203z" fill="#FFFFFF"/>
    <path id="svg_45" d="m57.711,185.186c6.615,-0.992 7.828,2.867 7.828,2.867s2.867,0 2.537,-2.205c-0.331,-2.205 -4.744,-2.867 -9.482,-2.867c-4.744,0 -14.116,2.867 -14.116,2.867s6.726,0.219 13.233,-0.662z" fill="#FFFFFF"/>
    <path id="svg_46" d="m57.711,198.089c0,0 2.535,0.66 4.962,1.104c0,0 0,0 0.11,0c3.197,1.213 3.418,17.418 3.418,17.418s1.544,-4.078 1.213,-8.488c-0.221,-3.086 -1.104,-6.945 -1.545,-8.93c2.207,-0.662 3.311,-3.863 2.428,-7.387c-0.992,-4.082 -15.108,-0.332 -15.108,-0.332s12.571,0.99 12.902,3.746c0.441,2.869 -8.38,2.869 -8.38,2.869z" fill="#FFFFFF"/>
    <path id="svg_47" d="m57.711,178.792c2.977,2.869 6.945,3.197 6.945,3.197s-1.545,-1.211 -5.621,-4.41c-4.083,-3.197 -2.868,-7.497 -2.868,-7.497s-3.417,3.969 1.544,8.71z" fill="#FFFFFF"/>
    <path id="svg_48" d="m64.767,181.11l-1.983,-9.703c0,0 -2.207,3.412 -0.772,5.951c1.32,2.428 2.755,3.752 2.755,3.752z" fill="#FFFFFF"/>
    <path id="svg_49" d="m37.864,185.737c0,0 -6.396,-1.762 -2.537,-12.789c0,0 -3.086,5.072 -1.766,10.475c1.324,5.513 4.303,2.314 4.303,2.314z" fill="#FFFFFF"/>
    <path id="svg_50" d="m155.291,219.147c-2.865,-5.623 -18.523,-8.156 -18.523,-8.156l-13.23,3.195c0,0 -31.424,-6.617 -34.952,-6.947c-3.42,-0.332 -12.571,6.617 -12.571,6.617s9.483,-5.072 12.571,-5.072c3.197,0 34.622,8.488 34.622,8.488s7.832,-0.992 15.105,-1.875c7.275,-0.879 17.31,4.303 16.978,3.75z" fill="#FFFFFF"/>
    <path id="svg_51" d="m99.944,225.434c0,0 11.904,7.279 23.594,12.236c7.059,3.09 15.105,4.635 20.4,5.297c-0.662,0.328 -3.971,1.984 -4.301,4.188c-0.332,2.426 1.215,5.846 1.545,2.867c0.332,-2.758 2.535,-6.506 2.756,-7.055c3.416,0.439 5.623,0.658 5.623,0.658s-39.584,-11.906 -49.617,-18.191z" fill="#FFFFFF"/>
    <path id="svg_52" d="m144.489,215.845c1.652,1.871 -0.551,-6.512 1.211,-12.021c0,0 -5.733,6.945 -1.211,12.021z" fill="#FFFFFF"/>
    <path id="svg_53" d="m170.842,207.46c-2.207,-2.316 -3.42,-1.213 -3.42,-1.213s1.436,3.75 0.553,6.836c-1.656,5.404 -5.842,7.721 -5.842,7.721s2.754,-0.221 7.717,-4.082c0.551,-0.441 0.883,-0.773 1.324,-1.213c-0.662,2.867 -2.207,7.5 -4.635,11.797c-3.086,5.625 -7.385,10.697 -7.385,10.697s5.402,-0.883 10.033,-10.697c2.979,-6.061 2.758,-10.475 2.426,-12.566c2.206,-3.308 0.001,-6.398 -0.771,-7.28z" fill="#FFFFFF"/>
    <path id="svg_54" d="m95.641,155.085c2.207,1.873 7.059,5.403 7.059,3.418s-8.273,-6.285 -10.477,-10.364c0,-0.001 1.214,5.071 3.418,6.946z" fill="#FFFFFF"/>
    <path id="svg_55" d="m152.094,237.671c-2.533,-0.662 -3.748,-3.748 -6.947,-4.41c-3.195,-0.658 -34.398,-10.033 -46.527,-16.318c0,0 22.385,12.24 29.881,14.777c7.496,2.535 15.768,5.4 15.768,5.4l3.748,3.42c0,0 5.957,1.877 8.16,-0.992c2.205,-2.869 4.742,-11.689 4.742,-11.689s-6.286,10.476 -8.825,9.812z" fill="#FFFFFF"/>
    <path id="svg_56" d="m135.776,221.135c0,0 11.689,4.518 16.982,3.527c0,0 -3.197,-3.309 -8.49,-4.08c-5.293,-0.661 -8.492,0.553 -8.492,0.553z" fill="#FFFFFF"/>
    <path id="svg_57" d="m67.194,180.887c0,1.213 2.979,0.885 2.979,0.885s2.535,0.877 3.305,-2.539c0.662,-2.537 0,-7.5 0,-7.5l-2.314,7.5c-0.002,-0.109 -3.97,0.33 -3.97,1.654z" fill="#FFFFFF"/>
    <path id="svg_58" d="m105.895,127.077c2.428,-0.221 3.971,1.104 3.752,-2.095c0,-0.552 -2.207,-0.44 -4.303,-0.22c-0.772,0.109 -1.541,0 -2.204,0c-0.331,0.552 -0.772,1.101 -1.545,1.433c0.662,1.875 3.196,0.993 4.3,0.882z" fill="#FFFFFF"/>
    <path id="svg_59" d="m97.848,124.652c-2.318,0.992 -5.293,2.314 -5.293,2.314s6.064,0.331 8.16,-0.992c2.205,-1.212 1.102,-4.741 1.102,-4.741s-0.881,1.986 -3.969,3.419z" fill="#FFFFFF"/>
    <path id="svg_60" d="m67.305,242.967c0,0 0.661,2.094 1.544,5.07c0.993,2.867 1.214,4.744 1.214,4.744s0.989,-2.428 0.326,-5.076c-0.547,-2.644 -3.084,-4.738 -3.084,-4.738z" fill="#FFFFFF"/>
    <path id="svg_61" d="m98.951,117.044l0,0c0.11,0 0.11,0 0,0z" fill="#FFFFFF"/>
    <path id="svg_62" d="m98.951,117.153l0,0c0,0 -0.111,0.11 0,0z" fill="#FFFFFF"/>
    <g id="svg_63">
     <g id="svg_64">
      <path id="svg_65" d="m111.407,24.973c2.48,-0.515 2.553,-0.02 3.189,2.286c0.635,2.279 1.516,3.102 3.539,3.366c1.596,0.21 3.178,0.513 4.773,0.718c3.002,0.384 6.113,-2.701 5.889,-6.176c-0.039,-0.529 -0.975,-1.253 -1.596,-1.391c-4.141,-0.93 -8.16,-1.381 -12.348,-1.889c-2.398,-0.283 -2.963,-0.969 -2.699,-3.586c0.359,-3.901 3.693,-6.703 7.859,-6.224c4.451,0.515 8.873,1.343 13.502,2.388c-0.121,1.783 -0.242,3.54 -0.369,5.27c-2.67,0.148 -2.854,0.061 -3.33,-2.344c-0.414,-2.071 -1.689,-2.964 -3.592,-3.42c-2.02,-0.477 -4.064,-0.992 -6.119,-0.939c-2.574,0.063 -4.793,3.512 -4.416,6.16c0.188,1.417 0.82,2.188 2.193,2.34c4.273,0.475 8.518,1.236 12.74,2.164c1.986,0.443 1.895,1.998 1.488,4.101c-0.639,3.171 -3.947,5.259 -7.396,4.675c-4.002,-0.682 -8.004,-1.323 -12.037,-1.65c-0.844,-0.068 -1.244,-0.768 -1.221,-1.832c0.031,-1.35 -0.024,-2.699 -0.049,-4.017z" fill="#FFFFFF" clip-rule="evenodd" fill-rule="evenodd"/>
      <path id="svg_66" d="m22.422,46.8c-2.66,-1.959 -4.977,-3.572 -7.396,-5.192c-1.631,6.179 1.078,14.456 4.414,15.491c-1.525,1.135 -2.947,2.231 -4.299,3.311c-0.385,-3.198 -0.701,-6.492 -0.951,-9.813c-0.188,-2.436 -0.369,-4.879 -0.463,-7.348c-0.063,-1.537 0.141,-3.258 -2.754,-2.82c2.189,-1.588 3.758,-2.658 5,-3.494c1.236,1.055 2.334,2.192 3.588,3.084c3.174,2.259 6.316,4.518 9.377,6.849c0.918,0.692 1.926,1.233 3.006,1.94c-1.469,0.866 -2.912,1.754 -4.34,2.666c-0.82,-1.947 -2.752,-3.635 -4.291,-3.262c-1.811,0.439 -3.551,1.266 -5.508,1.77c1.41,-1.008 2.824,-1.994 4.617,-3.182z" fill="#FFFFFF" clip-rule="evenodd" fill-rule="evenodd"/>
      <path id="svg_67" d="m145.243,30.226c-0.42,-3.475 -0.846,-6.441 -1.33,-9.494c-5.137,2.828 -8.852,10.589 -7.412,13.994c-1.719,-0.479 -3.342,-0.896 -4.906,-1.269c1.855,-2.46 3.816,-4.929 5.844,-7.363c1.484,-1.79 2.988,-3.577 4.553,-5.313c0.979,-1.084 2.246,-2.074 0.102,-4.131c2.451,0.709 4.18,1.267 5.533,1.713c0.098,1.711 0.057,3.368 0.277,4.984c0.547,4.092 1.088,8.162 1.537,12.217c0.133,1.211 0.436,2.395 0.666,3.745c-1.539,-0.612 -3.078,-1.188 -4.617,-1.735c0.771,-1.973 0.633,-4.678 -0.611,-5.679c-1.465,-1.173 -3.129,-2.029 -4.719,-3.276c1.565,0.464 3.131,0.949 5.083,1.607z" fill="#FFFFFF" clip-rule="evenodd" fill-rule="evenodd"/>
      <g id="svg_68">
       <path id="svg_69" d="m162.93,26.31c-0.668,0.552 -2.287,5.255 -3.479,8.396c-0.424,1.119 -1.004,2.895 -1.5,4.255c-0.43,1.491 -0.23,2.104 -0.27,3.62c-1.516,-0.711 -3.449,-1.573 -5.178,-2.295c0.67,-0.83 1.648,-1.596 2.049,-2.631c1.412,-3.641 2.775,-7.313 3.914,-11.066c0.352,-1.157 0.018,-2.566 -0.002,-4.14c2.096,0.873 4.354,1.89 6.604,2.936c3.352,1.556 6.736,3.323 9.896,5.095c0.66,0.367 1.67,0.955 1.668,0.955c0.004,0.004 -1.168,3.669 -1.617,4.916c-2.568,-0.742 -2.857,-0.684 -2.742,-3.369c0.066,-1.638 -0.57,-2.984 -2.303,-4.117c-2.226,-1.479 -6.136,-3.321 -7.04,-2.555z" fill="#FFFFFF" clip-rule="evenodd" fill-rule="evenodd"/>
       <path id="svg_70" d="m162.801,32.585c0.916,0.437 1.826,0.896 2.734,1.343c0.852,0.416 1.689,0.842 2.547,1.232c2.305,1.057 2.451,1.518 1.488,3.73c-2.193,-1.982 -4.512,-3.965 -6.893,-5.873c0.044,-0.146 0.085,-0.285 0.124,-0.432z" fill="#FFFFFF" clip-rule="evenodd" fill-rule="evenodd"/>
      </g>
      <path id="svg_71" d="m70.041,13.98c-3.77,0.793 -7.461,1.723 -11.117,2.789c-0.006,0.001 -0.014,0.003 -0.025,0.006c-3.652,1.066 -7.291,2.277 -10.945,3.654c0.346,1.812 0.693,3.541 1.023,5.215c1.979,-0.257 3.033,-0.787 2.91,-2.904c-0.049,-0.922 0.477,-2.236 1.176,-2.805c1.031,-0.849 3.031,-1.558 3.711,-1.489c0.666,0.067 0.895,1.446 1.137,2.341c0.916,3.406 1.658,6.863 2.596,10.262c0.406,1.777 0.602,2.977 -0.512,5.152c1.188,-0.38 2.285,-0.713 3.35,-1.024c0.004,-0.001 0.018,-0.005 0.021,-0.006c1.063,-0.311 2.17,-0.619 3.367,-0.936c-1.947,-1.282 -2.316,-2.432 -2.766,-4.196c-0.721,-3.461 -1.631,-6.871 -2.373,-10.326c-0.195,-0.908 -0.619,-2.23 -0.068,-2.652c0.561,-0.432 2.609,-0.905 3.883,-0.729c0.855,0.114 1.91,0.968 2.27,1.798c0.852,1.905 2,1.793 3.814,0.94c-0.461,-1.636 -0.944,-3.324 -1.452,-5.09z" fill="#FFFFFF" clip-rule="evenodd" fill-rule="evenodd"/>
      <path id="svg_72" d="m45.1,21.535c-2.266,0.906 -4.346,1.799 -6.361,2.713c1.146,0.809 1.805,1.39 2.186,2.43c1.629,4.236 2.879,8.066 4.324,12.38c0.422,1.259 0.035,2.351 -1.273,2.898c-0.975,0.408 -1.92,0.9 -2.871,1.372l0,0c-0.012,0.005 -0.021,0.008 -0.031,0.016c-0.01,0.004 -0.02,0.01 -0.031,0.015l0,0c-0.955,0.468 -1.92,0.916 -2.848,1.443c-1.254,0.716 -2.256,0.31 -2.826,-0.874c-1.961,-4.063 -3.723,-7.641 -5.514,-11.797c-0.449,-1.006 -0.4,-1.938 -0.18,-3.42c-1.971,1.053 -3.988,2.182 -6.141,3.456c2.482,0.497 3.281,2.643 4.232,4.662c1.215,2.603 2.49,5.174 3.689,7.79c0.77,1.674 1.986,2.391 3.547,2.165c1.074,-0.157 2.148,-0.476 3.117,-0.965c1.084,-0.544 2.158,-1.122 3.25,-1.654l0,0c0.012,-0.006 0.023,-0.011 0.029,-0.015c0.012,-0.006 0.02,-0.01 0.033,-0.017l0,0c1.086,-0.54 2.191,-1.035 3.277,-1.561c0.971,-0.468 1.895,-1.132 2.705,-1.903c1.182,-1.128 1.494,-2.6 0.873,-4.346c-0.975,-2.728 -1.863,-5.489 -2.82,-8.219c-0.735,-2.123 -1.659,-4.209 -0.366,-6.569z" fill="#FFFFFF" clip-rule="evenodd" fill-rule="evenodd"/>
      <path id="svg_73" d="m94.651,15.078c-1.303,-2.673 -3.559,-3.727 -6.289,-3.683c-1.715,0.03 -3.025,0.181 -4.727,0.376c-0.02,-0.002 -0.035,-0.002 -0.035,0.004l0,0c0,0.002 -0.002,0.002 -0.004,0.002c0,-0.006 -0.016,-0.004 -0.035,0.003c-1.695,0.2 -3.014,0.353 -4.689,0.716c-2.686,0.584 -4.695,2.133 -5.467,5.047c-0.732,2.76 -0.285,5.389 0.443,8.066c1.141,4.111 3.766,6.331 7.256,5.896c1.432,-0.176 2.863,-0.361 4.297,-0.532l0,0c0.012,-0.002 0.025,-0.003 0.043,-0.005c0.014,-0.003 0.025,-0.004 0.043,-0.006l0,0c1.434,-0.16 2.865,-0.308 4.297,-0.463c3.488,-0.375 5.625,-3.15 5.961,-7.432c0.201,-2.783 0.138,-5.458 -1.094,-7.989zm-2.389,7.222c-0.016,4.867 -1.154,7.398 -6.881,8.024c-5.719,0.702 -7.328,-1.51 -8.266,-6.267c-0.32,-1.632 -0.506,-3.334 -0.48,-4.998c0.018,-1.143 0.271,-2.434 0.84,-3.389c1.436,-2.435 3.977,-3.027 6.186,-3.279c2.207,-0.26 4.795,-0.262 6.662,1.791c0.73,0.803 1.225,2.006 1.459,3.119c0.339,1.624 0.488,3.33 0.48,4.999z" fill="#FFFFFF" clip-rule="evenodd" fill-rule="evenodd"/>
      <g id="svg_74">
       <path id="svg_75" d="m182.034,43.527c0.869,0.583 1.729,1.186 2.588,1.775c0.803,0.551 1.594,1.115 2.41,1.645c2.186,1.428 2.277,1.914 1.055,3.941c-1.975,-2.33 -4.066,-4.678 -6.225,-6.959c0.06,-0.129 0.115,-0.27 0.172,-0.402z" fill="#FFFFFF" clip-rule="evenodd" fill-rule="evenodd"/>
       <path id="svg_76" d="m185.178,55.199c-1.244,0.864 -2.541,0.949 -4.182,0.008c-2.113,-1.234 -5.432,-3.453 -5.398,-4.659c0.02,-0.671 1.371,-3.195 2.703,-5.644l0.002,0.002c0.066,-0.121 0.135,-0.245 0.195,-0.374c0.072,-0.122 0.135,-0.241 0.199,-0.36c0,0 -0.002,-0.002 -0.004,-0.004c1.43,-2.714 3.498,-6.598 4.053,-6.93c0.992,-0.611 4.701,1.852 6.762,3.68c1.6,1.406 2.086,2.842 1.828,4.453c-0.424,2.643 -0.131,2.633 2.367,3.8c0.594,-1.161 2.191,-4.602 2.188,-4.604c0,0 -0.941,-0.75 -1.564,-1.225c-2.965,-2.28 -6.15,-4.585 -9.33,-6.671c-2.135,-1.398 -4.277,-2.767 -6.273,-3.966c-0.164,1.557 0.004,3.005 -0.484,4.09c-0.609,1.367 -1.902,3.991 -2.719,5.611c-0.73,1.435 -1.482,2.856 -2.275,4.255c-0.58,1.026 -1.73,1.669 -2.783,2.696c1.787,1.071 3.717,2.271 5.609,3.553c2.816,1.908 5.674,3.952 8.314,6.006c0.555,0.431 1.398,1.095 1.396,1.096c-0.002,-0.004 2.432,-2.787 3.248,-3.764c-1.686,-2.153 -1.817,-2.457 -3.852,-1.049z" fill="#FFFFFF" clip-rule="evenodd" fill-rule="evenodd"/>
      </g>
     </g>
     <path id="svg_77" d="m111.676,38.873c-3.906,-0.328 -7.76,-0.463 -11.607,-0.424c-0.01,0 -0.02,0 -0.029,0.002c-3.844,0.041 -7.697,0.261 -11.598,0.67c-0.045,1.851 -0.076,3.62 -0.102,5.333c1.99,0.251 3.129,0.013 3.475,-2.08c0.145,-0.905 0.955,-2.046 1.77,-2.417c1.199,-0.556 3.326,-0.709 3.984,-0.461c0.643,0.244 0.549,1.641 0.586,2.572c0.133,3.549 0.082,7.104 0.232,10.652c0.002,1.829 -0.076,3.046 -1.623,4.856c1.221,-0.054 2.357,-0.081 3.445,-0.092c0.01,0 0.018,0 0.027,0c1.088,-0.013 2.225,-0.009 3.449,0.017c-1.58,-1.775 -1.682,-2.99 -1.713,-4.819c0.086,-3.55 -0.025,-7.104 0.045,-10.655c0.02,-0.932 -0.1,-2.327 0.541,-2.586c0.65,-0.26 2.779,-0.152 3.988,0.378c0.822,0.353 1.65,1.476 1.813,2.378c0.385,2.086 1.531,2.299 3.516,2.007c-0.058,-1.714 -0.125,-3.482 -0.199,-5.331z" fill="#FFFFFF" clip-rule="evenodd" fill-rule="evenodd"/>
     <path id="svg_78" d="m136.67,43.57c-2.371,-0.7 -4.576,-1.281 -6.736,-1.791c0.541,1.383 0.787,2.273 0.561,3.37c-0.842,4.504 -1.793,8.437 -2.822,12.894c-0.305,1.297 -1.178,1.957 -2.52,1.598c-1.006,-0.266 -2.021,-0.439 -3.033,-0.634l0,0c-0.014,-0.003 -0.021,-0.005 -0.033,-0.008c-0.01,-0.001 -0.023,-0.005 -0.031,-0.005l0,0c-1.016,-0.199 -2.021,-0.418 -3.047,-0.547c-1.369,-0.168 -1.984,-1.117 -1.861,-2.451c0.418,-4.574 0.756,-8.627 1.365,-13.176c0.133,-1.114 0.641,-1.859 1.576,-2.955c-2.178,-0.332 -4.424,-0.618 -6.852,-0.853c1.822,1.917 1.41,4.192 1.189,6.45c-0.283,2.91 -0.508,5.832 -0.813,8.74c-0.197,1.863 0.441,3.196 1.828,3.956c0.941,0.518 1.973,0.903 3,1.089c1.156,0.21 2.318,0.387 3.473,0.615l0,0c0.01,0.002 0.021,0.004 0.031,0.006c0.012,0.003 0.021,0.005 0.035,0.007l0,0c1.152,0.22 2.303,0.491 3.453,0.729c1.025,0.214 2.121,0.244 3.168,0.113c1.547,-0.189 2.564,-1.199 2.963,-3.024c0.617,-2.848 1.326,-5.675 1.961,-8.517c0.499,-2.204 0.821,-4.497 3.145,-5.606z" fill="#FFFFFF" clip-rule="evenodd" fill-rule="evenodd"/>
     <path id="svg_79" d="m66.66,43.4c-2.371,0.69 -4.553,1.396 -6.67,2.143c1.098,0.902 1.725,1.537 2.025,2.61c1.303,4.37 2.262,8.3 3.383,12.729c0.324,1.293 -0.135,2.342 -1.473,2.771c-0.998,0.322 -1.965,0.73 -2.939,1.12l0,0c-0.014,0.005 -0.025,0.009 -0.033,0.013s-0.021,0.009 -0.029,0.012l0,0c-0.98,0.388 -1.969,0.759 -2.924,1.213c-1.279,0.613 -2.254,0.133 -2.754,-1.09c-1.713,-4.194 -3.262,-7.889 -4.797,-12.167c-0.391,-1.038 -0.281,-1.966 0.041,-3.433c-2.072,0.924 -4.182,1.924 -6.436,3.08c2.484,0.639 3.158,2.84 3.994,4.918c1.068,2.68 2.207,5.33 3.262,8.018c0.678,1.723 1.848,2.52 3.418,2.406c1.068,-0.079 2.158,-0.318 3.139,-0.725c1.115,-0.461 2.213,-0.949 3.332,-1.389l0,0c0.008,-0.004 0.021,-0.008 0.027,-0.012c0.008,-0.003 0.02,-0.008 0.033,-0.014l0,0c1.111,-0.446 2.24,-0.844 3.354,-1.271c0.992,-0.378 1.955,-0.956 2.816,-1.646c1.256,-1.012 1.682,-2.446 1.199,-4.246c-0.75,-2.807 -1.418,-5.646 -2.156,-8.459c-0.565,-2.183 -1.323,-4.348 0.188,-6.581z" fill="#FFFFFF" clip-rule="evenodd" fill-rule="evenodd"/>
     <g id="svg_80">
      <path id="svg_81" d="m166.537,65.485c0.885,0.571 1.764,1.163 2.646,1.753c0.814,0.543 1.625,1.105 2.457,1.633c2.23,1.432 2.328,1.922 1.115,3.955c-2.008,-2.335 -4.156,-4.676 -6.385,-6.936c0.058,-0.133 0.115,-0.272 0.167,-0.405z" fill="#FFFFFF" clip-rule="evenodd" fill-rule="evenodd"/>
      <path id="svg_82" d="m169.871,77.155c-1.246,0.872 -2.543,0.961 -4.191,0.04c-2.125,-1.214 -5.473,-3.357 -5.467,-4.562c0.012,-0.67 1.309,-3.229 2.592,-5.71c0,0 0.002,0.002 0.004,0.003c0.061,-0.118 0.127,-0.246 0.189,-0.376c0.063,-0.122 0.127,-0.245 0.188,-0.369c0,0 -0.002,0 -0.004,-0.002c1.375,-2.746 3.367,-6.68 3.916,-7.018c0.994,-0.637 4.824,1.8 6.949,3.645c1.656,1.409 2.17,2.863 1.93,4.484c-0.4,2.66 -0.1,2.643 2.438,3.836c0.59,-1.16 2.182,-4.611 2.18,-4.613c0,-0.001 -0.973,-0.766 -1.607,-1.25c-3.049,-2.326 -6.33,-4.641 -9.617,-6.705c-2.205,-1.383 -4.418,-2.719 -6.494,-3.878c-0.107,1.571 0.104,3.02 -0.354,4.118c-0.576,1.385 -1.803,4.047 -2.572,5.691c-0.699,1.458 -1.422,2.897 -2.17,4.318c-0.561,1.046 -1.691,1.726 -2.719,2.784c1.811,1.013 3.758,2.153 5.668,3.39c2.844,1.846 5.717,3.85 8.367,5.897c0.551,0.425 1.398,1.089 1.398,1.091c-0.002,-0.004 2.426,-2.791 3.246,-3.768c-1.7,-2.156 -1.844,-2.463 -3.87,-1.046z" fill="#FFFFFF" clip-rule="evenodd" fill-rule="evenodd"/>
     </g>
     <path id="svg_83" d="m44.731,69.315c0.297,2.065 -0.631,3.248 -2.369,4.403c-1.199,0.8 -2.383,1.549 -3.582,2.338c-1.99,1.304 -4.398,1.579 -5.959,-0.223c-1.004,-1.168 -1.965,-2.414 -2.828,-3.731c-0.793,-1.37 -1.49,-2.817 -2.084,-4.288c-0.928,-2.271 0.461,-4.814 2.689,-6.361c1.334,-0.927 2.656,-1.813 4.051,-2.643c2.025,-1.201 3.607,-1.471 5.031,-0.057c1.434,1.417 2.6,1.072 4.068,-0.359c-0.625,-1.281 -0.998,-1.964 -1.713,-3.272c-0.516,-0.929 -0.992,-1.107 -2.004,-0.534c-4.168,2.372 -8.336,4.863 -12.297,7.779c-2.645,1.938 -3.875,5.212 -2.975,8.103c0.447,1.428 1.102,2.785 1.848,4.065c-0.006,0.003 -0.01,0.006 -0.012,0.01c0.025,0.041 0.057,0.078 0.084,0.119s0.051,0.083 0.076,0.122c0.004,-0.003 0.008,-0.005 0.01,-0.009c0.877,1.178 1.846,2.288 2.91,3.219c2.184,1.879 5.08,1.906 7.418,0.313c3.531,-2.415 7.059,-4.789 10.736,-6.79c0.889,-0.484 1.012,-0.979 0.648,-1.991c-0.518,-1.419 -0.781,-2.157 -1.324,-3.488c-1.827,0.352 -2.725,1.204 -2.422,3.275z" fill="#FFFFFF" clip-rule="evenodd" fill-rule="evenodd"/>
     <path id="svg_84" d="m86.504,54.927c-0.385,1.561 -1.262,2.563 -2.992,3.057c-2.234,0.615 -5.928,1.4 -6.631,0.484c-0.389,-0.514 -0.941,-3.387 -1.455,-6.188c0.002,0 0.004,0 0.006,0c-0.027,-0.139 -1.24,-6.354 -1.346,-7.021c-0.373,-2.359 1.277,-4.061 1.281,-4.058c-0.018,0.006 -0.031,0.008 -0.053,0.013c-2.418,0.537 -4.828,1.12 -7.041,1.732c0.84,1.267 1.82,2.06 2.127,3.226c0.398,1.465 1.096,4.514 1.492,6.314c0.346,1.605 0.666,3.215 0.949,4.834c0.207,1.191 -0.227,2.539 -0.354,4.076c1.934,-0.535 4.031,-1.074 6.146,-1.508c3.15,-0.65 6.391,-1.234 9.465,-1.601c0.648,-0.079 1.633,-0.19 1.633,-0.19c-0.002,0 0.127,-3.847 0.146,-5.178c-2.455,-0.398 -2.736,-0.528 -3.373,2.008z" fill="#FFFFFF" clip-rule="evenodd" fill-rule="evenodd"/>
     <path id="svg_85" d="m150.453,59.236c0.791,0.313 1.279,0.57 1.791,0.717c2.045,0.587 4.123,1.068 5.869,-0.655c2.061,-2.007 1.555,-5.413 -1.445,-7.501c-2.043,-1.418 -4.34,-2.423 -6.592,-3.407c-3.861,-1.792 -11.719,-4.293 -11.859,-4.271c0.076,0.72 0.225,1.364 0.336,1.969c-0.027,1.091 -0.072,2.141 -0.254,3.161c-0.063,0.346 -0.127,0.699 -0.195,1.047c-0.344,1.377 -2.236,8.227 -2.393,8.713c-0.328,1.018 -2.184,3.088 -2.324,3.158c0.088,-0.027 5.975,1.975 5.977,2.032c-0.168,-0.978 -0.301,-2.849 -0.156,-3.634c0.363,-1.875 1.156,-4.676 1.959,-5.133c1.225,-0.715 5.133,2.199 5.684,4.56c0.572,2.322 1.033,4.659 1.498,6.976c0.102,0.5 0.232,1.205 0.541,1.381c1.537,0.856 3.127,1.602 4.682,2.441c-2.384,-3.337 -2.05,-7.486 -3.119,-11.554zm-8.041,-4.512c-0.789,-0.484 -1.162,-1.608 -0.83,-2.733c0.189,-0.639 1.174,-3.964 1.174,-3.962c0.697,-1.535 2.342,-0.799 2.34,-0.795c0.008,-0.029 4.988,1.807 6.748,2.764c1.775,0.919 2.865,1.76 3.455,3.016c0.328,0.693 0.592,1.711 -0.043,3.253c-1.139,2.747 -3.688,2.232 -4.896,1.752c-1.198,-0.545 -7.145,-2.861 -7.948,-3.295z" fill="#FFFFFF" clip-rule="evenodd" fill-rule="evenodd"/>
    </g>
    <g id="svg_86">
     <path id="svg_87" d="m100.83,201.788c-0.072,0 -0.134,-0.05 -0.162,-0.133c-0.029,-0.08 -0.016,-0.17 0.034,-0.233l0.975,-1.244l0.108,0.104c-0.001,0.003 -0.13,0.26 -0.075,0.476c0.024,0.104 0.089,0.337 0.193,0.395c0.048,0.024 3.924,0.133 7.084,0.133c5.403,0 11.493,-0.205 11.554,-0.207c0.165,0 0.301,-0.142 0.33,-0.337c0.102,-0.699 0.21,-1.786 0.152,-3.002c-0.067,-1.423 -0.396,-2.457 -0.658,-3.078c-0.098,-0.23 -0.292,-0.373 -0.505,-0.373l-4.591,0c-0.202,0 -0.382,-0.147 -0.456,-0.377c-0.147,-0.467 -0.378,-1.501 -0.242,-3.195c0.149,-1.868 0.816,-2.721 1.035,-3.004c0.097,-0.124 0.231,-0.193 0.372,-0.193l11.854,0c0.132,0.011 0.177,0.084 0.194,0.145c0.084,0.316 -0.589,1.048 -0.798,1.264l-0.194,0.204l0.085,-0.295c0.027,-0.099 0.087,-0.387 0.015,-0.525c-0.023,-0.048 -0.06,-0.073 -0.113,-0.082c-0.897,-0.147 -2.105,-0.222 -3.592,-0.222c-2.531,0 -5.021,0.22 -5.047,0.222c-0.163,0 -0.304,0.105 -0.376,0.274c-0.206,0.495 -0.463,1.308 -0.521,2.376c-0.051,0.989 0.04,1.883 0.129,2.456c0.021,0.141 0.121,0.242 0.239,0.242l4.705,0c0.173,0 0.337,0.097 0.445,0.265c0.178,0.27 0.77,1.337 0.937,3.714c0.125,1.805 -0.277,3.096 -0.471,3.716c-0.027,0.094 -0.055,0.173 -0.071,0.239c-0.047,0.165 -0.172,0.277 -0.315,0.277l-22.253,0l0,-0.002z" stroke-miterlimit="10" stroke-width="0.25" stroke="#FFFFFF" fill="#FFFFFF"/>
     <path id="svg_88" d="m141.373,200.187c0,0 0.345,0.784 -0.151,0.837c-5.518,0.604 -12.522,0.064 -12.522,0.064c-0.167,0 -0.311,-0.141 -0.353,-0.341c-0.192,-0.997 -0.458,-2.627 -0.395,-3.813c0.081,-1.533 0.766,-3.218 1.113,-3.987c0.068,-0.15 0.197,-0.243 0.338,-0.243c0,0 2.204,-0.422 3.244,0c0.33,0.133 0.155,0.72 0.155,0.72l0.514,-0.72l0.034,0l0.018,-0.07c0,0 0.457,-0.452 0.08,-0.471l-6.584,0c-0.25,0 -0.482,0.174 -0.588,0.452c-0.326,0.843 -0.864,1.757 -1.104,3.868c-0.214,1.91 0.278,3.896 0.525,4.74c0.074,0.253 0.27,0.42 0.488,0.42l16.002,-0.015c0.109,0 0.165,-0.162 0.091,-0.261l-0.905,-1.18z" stroke-miterlimit="10" stroke-width="0.25" stroke="#FFFFFF" fill="#FFFFFF"/>
     <path id="svg_89" d="m103.642,199.902c-0.102,0 -0.188,-0.071 -0.226,-0.188c-0.039,-0.115 -0.02,-0.243 0.053,-0.33l1.358,-1.643l-2.81,0l-0.674,-0.014c-0.081,0 -0.141,-0.06 -0.157,-0.149c-0.015,-0.087 0.017,-0.171 0.079,-0.211l1.23,-1.199c0.043,-0.052 0.085,-0.082 0.09,-0.086l0.078,0.14l-0.074,0.072c-0.034,0.045 -0.046,0.084 -0.037,0.119c0.011,0.053 0.082,0.185 0.499,0.319c0.191,0.063 0.749,0.124 1.565,0.18c0.304,0.021 0.597,0.04 0.846,0.061l4.886,-5.915c0.075,-0.092 0.175,-0.143 0.282,-0.143c0.108,0 0.214,0.052 0.288,0.148l1.059,1.325l3.854,4.642l3.041,0l0.024,0.165l-0.976,0.417l-1.608,0l1.685,2.026c0.036,0.044 0.049,0.109 0.028,0.164c-0.019,0.06 -0.063,0.098 -0.114,0.098l-0.529,-0.006c-0.135,0 -0.263,-0.064 -0.359,-0.181l-1.792,-2.102l-6.404,0.128l-1.568,1.926c-0.125,0.151 -0.288,0.235 -0.463,0.235l-3.154,0l0,0.002zm11.092,-2.871l-2.647,-3.104c-0.02,-0.024 -0.045,-0.037 -0.073,-0.037c-0.027,0 -0.054,0.015 -0.074,0.038l-2.533,3.104l5.327,0l0,-0.001z" stroke-miterlimit="10" stroke-width="0.25" stroke="#FFFFFF" fill="#FFFFFF"/>
    </g>
    <g id="svg_90">
     <path id="svg_91" d="m128.266,170.422l-0.073,5.563c0,0 0.935,4.215 3.859,4.134c2.951,-0.079 3.583,-4.685 3.583,-4.685l-0.019,-5.012l-7.35,0z" fill="#FFFFFF"/>
     <path id="svg_92" d="m133.69,175.567c0,0.98 -0.792,1.776 -1.776,1.776c-0.983,0 -1.775,-0.796 -1.775,-1.776c0,-0.979 0.792,-1.775 1.775,-1.775c0.984,0 1.776,0.796 1.776,1.775z" fill="#1D1D1B"/>
    </g>
    <g id="svg_93">
     <path id="svg_94" d="m76.393,169.734l-0.073,5.563c0,0 0.935,4.215 3.859,4.134c2.951,-0.079 3.583,-4.685 3.583,-4.685l-0.019,-5.012l-7.35,0z" fill="#FFFFFF"/>
     <path id="svg_95" d="m81.817,174.879c0,0.98 -0.792,1.776 -1.776,1.776c-0.983,0 -1.775,-0.796 -1.775,-1.776c0,-0.979 0.792,-1.775 1.775,-1.775c0.984,-0.001 1.776,0.795 1.776,1.775z" fill="#1D1D1B"/>
    </g>
    <path id="svg_96" d="m78.033,178.004c0,0 -3.566,14.525 -6.88,17.33c-3.313,2.803 -1.587,4.059 -1.587,4.059s4.645,-0.236 6.174,-5.078s3.567,-16.055 3.567,-16.055l-1.274,-0.256z" fill="#FFFFFF"/>
   </g>
  </g>
 </g>
</svg>