<svg width="37" height="37" viewBox="0 0 37 37" fill="none" xmlns="http://www.w3.org/2000/svg">
<path d="M18.5 37C28.7173 37 37 28.7173 37 18.5C37 8.28273 28.7173 0 18.5 0C8.28273 0 0 8.28273 0 18.5C0 28.7173 8.28273 37 18.5 37Z" fill="url(#paint0_linear_60_1435)"/>
<path d="M12.3903 20.0043L14.5188 25.7773L23.9656 12.6567L12.3903 20.0043Z" fill="#C2DAEC"/>
<path d="M14.7519 21.2871L14.5478 25.8357L19.5337 21.6077L14.7519 21.2871Z" fill="#9FCDE2"/>
<path d="M26.2743 10.4405L7.65509 17.5154C7.12907 17.7151 7.14299 18.4641 7.67609 18.6443L12.4776 20.2668L23.4114 13.211L14.7519 21.2874L21.4932 26.4032C22.1946 26.9353 23.2114 26.5776 23.4249 25.7236L27.0691 11.147C27.1866 10.6766 26.7273 10.2683 26.2743 10.4405Z" fill="#ECF8FD"/>
<defs>
<linearGradient id="paint0_linear_60_1435" x1="5.41859" y1="5.4184" x2="31.5816" y2="31.5814" gradientUnits="userSpaceOnUse">
<stop stop-color="#00AFE5"/>
<stop offset="1" stop-color="#0094D4"/>
</linearGradient>
</defs>
</svg>
